<svg width="110" height="140" viewBox="0 0 110 140" fill="none" xmlns="http://www.w3.org/2000/svg">
<rect x="13.5" y="43.5" width="65" height="36" fill="white" stroke="black"/>
<rect x="0.5" y="19.5" width="37" height="74" rx="4.5" fill="white" stroke="black"/>
<line y1="-0.5" x2="25.2717" y2="-0.5" transform="matrix(0.713374 0.700783 -0.713374 0.700783 60.2834 80.1462)" stroke="black"/>
<line y1="-0.5" x2="25.2717" y2="-0.5" transform="matrix(0.713374 0.700783 -0.713374 0.700783 74.306 80.1462)" stroke="black"/>
<path d="M42.241 79.3508L39.1556 100.436C39.1556 100.436 37.8439 110.367 35.3686 116.615C32.8934 122.863 28.4309 128.458 28.3878 128.429C28.3447 128.401 20.582 137.808 20.582 137.808" stroke="black"/>
<path d="M57 137C51.9578 131.197 50.6272 127.904 51.0839 122.032L51.0839 79" stroke="black"/>
<circle cx="91" cy="104" r="18.5" fill="white" stroke="black"/>
<circle cx="91" cy="104" r="3.5" fill="white" stroke="black"/>
<path d="M108.5 104C108.5 107.001 105.852 109.5 102.5 109.5C99.1479 109.5 96.5 107.001 96.5 104C96.5 100.999 99.1479 98.5 102.5 98.5C105.852 98.5 108.5 100.999 108.5 104Z" fill="white" stroke="black"/>
<path d="M96.5 92.5C96.5 95.8521 94.0006 98.5 91 98.5C87.9994 98.5 85.5 95.8521 85.5 92.5C85.5 89.1479 87.9994 86.5 91 86.5C94.0006 86.5 96.5 89.1479 96.5 92.5Z" fill="white" stroke="black"/>
<path d="M85.5 104C85.5 107.001 82.8521 109.5 79.5 109.5C76.1479 109.5 73.5 107.001 73.5 104C73.5 100.999 76.1479 98.5 79.5 98.5C82.8521 98.5 85.5 100.999 85.5 104Z" fill="white" stroke="black"/>
<path d="M96.5 115.5C96.5 118.852 94.0006 121.5 91 121.5C87.9994 121.5 85.5 118.852 85.5 115.5C85.5 112.148 87.9994 109.5 91 109.5C94.0006 109.5 96.5 112.148 96.5 115.5Z" fill="white" stroke="black"/>
<line y1="-0.5" x2="25.2717" y2="-0.5" transform="matrix(0.713374 -0.700783 -0.713374 -0.700783 60.2834 42.5778)" stroke="black"/>
<line y1="-0.5" x2="25.2717" y2="-0.5" transform="matrix(0.713374 -0.700783 -0.713374 -0.700783 74.306 42.5778)" stroke="black"/>
<circle cx="19" cy="19" r="18.5" transform="matrix(1 0 0 -1 72 38)" fill="white" stroke="black"/>
<circle cx="4" cy="4" r="3.5" transform="matrix(1 0 0 -1 87 23)" fill="white" stroke="black"/>
<circle cx="6.5" cy="6.5" r="6" transform="matrix(1 0 0 -1 96 25)" fill="white" stroke="black"/>
<circle cx="6" cy="6" r="5.5" transform="matrix(1 0 0 -1 85 36)" fill="white" stroke="black"/>
<circle cx="6.5" cy="6.5" r="6" transform="matrix(1 0 0 -1 73 25)" fill="white" stroke="black"/>
<path d="M96.5 7.5C96.5 4.14786 94.0006 1.5 91 1.5C87.9994 1.5 85.5 4.14786 85.5 7.5C85.5 10.8521 87.9994 13.5 91 13.5C94.0006 13.5 96.5 10.8521 96.5 7.5Z" fill="white" stroke="black"/>
<line x1="79" y1="70.5" x2="99" y2="70.5" stroke="black"/>
<line x1="79" y1="53.5" x2="99" y2="53.5" stroke="black"/>
<rect x="99.5" y="50.5" width="6" height="24" fill="white" stroke="black"/>
<line x1="5" y1="137.5" x2="69" y2="137.5" stroke="black"/>
<line x1="4.53532e-08" y1="34.5" x2="38" y2="34.5" stroke="black"/>
<line x1="4.53532e-08" y1="39.5" x2="38" y2="39.5" stroke="black"/>
<line x1="4.53532e-08" y1="44.5" x2="38" y2="44.5" stroke="black"/>
<line x1="4.53532e-08" y1="49.5" x2="38" y2="49.5" stroke="black"/>
<line x1="4.53532e-08" y1="54.5" x2="38" y2="54.5" stroke="black"/>
<line x1="4.53532e-08" y1="64.5" x2="38" y2="64.5" stroke="black"/>
<line x1="4.53532e-08" y1="69.5" x2="38" y2="69.5" stroke="black"/>
<line x1="4.53532e-08" y1="74.5" x2="38" y2="74.5" stroke="black"/>
<line x1="4.53532e-08" y1="79.5" x2="38" y2="79.5" stroke="black"/>
<line x1="4.53532e-08" y1="84.5" x2="38" y2="84.5" stroke="black"/>
<line x1="4.53532e-08" y1="59.5" x2="38" y2="59.5" stroke="black"/>
<line x1="99" y1="53.5" x2="106" y2="53.5" stroke="black"/>
<line x1="99" y1="55.5" x2="106" y2="55.5" stroke="black"/>
<line x1="99" y1="58.5" x2="106" y2="58.5" stroke="black"/>
<line x1="99" y1="60.5" x2="106" y2="60.5" stroke="black"/>
<line x1="99" y1="63.5" x2="106" y2="63.5" stroke="black"/>
<line x1="99" y1="65.5" x2="106" y2="65.5" stroke="black"/>
<line x1="99" y1="68.5" x2="106" y2="68.5" stroke="black"/>
<line x1="99" y1="70.5" x2="106" y2="70.5" stroke="black"/>
<path d="M44.9835 106.663L41.1865 99.8709L44.991 93.6258L48.8078 99.7461L44.9835 106.663Z" fill="white" stroke="black"/>
</svg>
