<svg width="140" height="294" viewBox="0 0 140 294" fill="none" xmlns="http://www.w3.org/2000/svg">
<g filter="url(#filter0_d_301_57)">
<path d="M120.36 105.5C128.904 94.6215 134 80.9059 134 66C134 30.6538 105.346 2 70 2C34.6538 2 6 30.6538 6 66C6 80.9059 11.0958 94.6215 19.6403 105.5" stroke="black" stroke-width="4"/>
</g>
<rect x="40" y="164" width="60" height="11" rx="5.5" fill="white" stroke="black" stroke-width="4"/>
<rect x="42" y="175" width="56" height="11" rx="5.5" fill="white" stroke="black" stroke-width="4"/>
<rect x="44" y="187" width="52" height="11" rx="5.5" fill="white" stroke="black" stroke-width="4"/>
<path d="M14.5 98C14.5 98 30.7939 120.408 35 137C37.4164 146.532 41 162 41 162H99C99 162 102.584 146.532 105 137C109.206 120.408 125.5 98 125.5 98" stroke="black" stroke-width="4"/>
<path d="M74.5 160.5C74.5 160.5 74.2603 146.864 74.9999 138.5C76.9199 116.788 92.4999 85.5 92.4999 85.5" stroke="black" stroke-width="4"/>
<path d="M65.4628 160.5C65.4628 160.5 65.7024 146.864 64.9628 138.5C63.0428 116.788 47.4628 85.5 47.4628 85.5" stroke="black" stroke-width="4"/>
<line x1="50" y1="78" x2="90" y2="78" stroke="black" stroke-width="4"/>
<g filter="url(#filter1_d_301_57)">
<path d="M57 196H85V197C85 204.732 78.732 211 71 211V211C63.268 211 57 204.732 57 197V196Z" fill="white"/>
<path d="M71 209C64.7093 209 59.5492 204.16 59.0411 198H82.9589C82.4508 204.16 77.2907 209 71 209Z" stroke="black" stroke-width="4"/>
</g>
<circle cx="90" cy="205" r="5" fill="black"/>
<circle cx="90" cy="229" r="5" fill="black"/>
<circle cx="90" cy="217" r="5" fill="black"/>
<circle cx="90" cy="241" r="5" fill="black"/>
<circle cx="90" cy="265" r="5" fill="black"/>
<circle cx="90" cy="277" r="5" fill="black"/>
<circle cx="90" cy="289" r="5" fill="black"/>
<circle cx="90" cy="253" r="5" fill="black"/>
<defs>
<filter id="filter0_d_301_57" x="0" y="0" width="140" height="114.735" filterUnits="userSpaceOnUse" color-interpolation-filters="sRGB">
<feFlood flood-opacity="0" result="BackgroundImageFix"/>
<feColorMatrix in="SourceAlpha" type="matrix" values="0 0 0 0 0 0 0 0 0 0 0 0 0 0 0 0 0 0 127 0" result="hardAlpha"/>
<feOffset dy="4"/>
<feGaussianBlur stdDeviation="2"/>
<feComposite in2="hardAlpha" operator="out"/>
<feColorMatrix type="matrix" values="0 0 0 0 0 0 0 0 0 0 0 0 0 0 0 0 0 0 0.25 0"/>
<feBlend mode="normal" in2="BackgroundImageFix" result="effect1_dropShadow_301_57"/>
<feBlend mode="normal" in="SourceGraphic" in2="effect1_dropShadow_301_57" result="shape"/>
</filter>
<filter id="filter1_d_301_57" x="53" y="196" width="36" height="23" filterUnits="userSpaceOnUse" color-interpolation-filters="sRGB">
<feFlood flood-opacity="0" result="BackgroundImageFix"/>
<feColorMatrix in="SourceAlpha" type="matrix" values="0 0 0 0 0 0 0 0 0 0 0 0 0 0 0 0 0 0 127 0" result="hardAlpha"/>
<feOffset dy="4"/>
<feGaussianBlur stdDeviation="2"/>
<feComposite in2="hardAlpha" operator="out"/>
<feColorMatrix type="matrix" values="0 0 0 0 0 0 0 0 0 0 0 0 0 0 0 0 0 0 0.25 0"/>
<feBlend mode="normal" in2="BackgroundImageFix" result="effect1_dropShadow_301_57"/>
<feBlend mode="normal" in="SourceGraphic" in2="effect1_dropShadow_301_57" result="shape"/>
</filter>
</defs>
</svg>
