<svg width="194" height="125" viewBox="0 0 194 125" fill="none" xmlns="http://www.w3.org/2000/svg">
<path d="M16.5195 0.5H177.507C179.806 0.5 181.738 2.24168 181.971 4.52817C185.52 39.3222 185.477 60.6682 181.966 95.4657C181.735 97.7549 179.802 99.5 177.501 99.5H16.5531C14.2312 99.5 12.2884 97.7246 12.0805 95.4123C8.95552 60.658 8.7191 39.3158 12.0533 4.55415C12.2737 2.25647 14.2101 0.5 16.5195 0.5Z" fill="white" stroke="black"/>
<rect x="184.5" y="35.5" width="9" height="19" fill="white" stroke="black"/>
<rect x="0.5" y="35.5" width="9" height="19" fill="white" stroke="black"/>
<rect x="72.5" y="100.5" width="49" height="19" fill="white" stroke="black"/>
<rect x="22.5" y="120.5" width="149" height="4" fill="white" stroke="black"/>
<rect x="22.5" y="10.5" width="99" height="79" rx="9.5" fill="black" stroke="black"/>
<path d="M25.5881 21L27.5398 17.1392V17.1051H25.2898V16.6364H28.0852V17.1307L26.142 21H25.5881ZM35.6346 21.0597C35.4556 21.0568 35.2766 21.0227 35.0976 20.9574C34.9186 20.892 34.7553 20.782 34.6076 20.6271C34.4598 20.4709 34.3412 20.2599 34.2517 19.9943C34.1623 19.7273 34.1175 19.392 34.1175 18.9886C34.1175 18.6023 34.1537 18.2599 34.2262 17.9616C34.2986 17.6619 34.4037 17.4098 34.5415 17.2053C34.6793 16.9993 34.8455 16.843 35.0401 16.7365C35.2361 16.63 35.457 16.5767 35.7027 16.5767C35.9471 16.5767 36.1644 16.6257 36.3547 16.7237C36.5465 16.8203 36.7027 16.9553 36.8235 17.1286C36.9442 17.3018 37.0223 17.5014 37.0578 17.7273H36.538C36.4897 17.5312 36.3959 17.3686 36.2567 17.2393C36.1175 17.1101 35.9328 17.0455 35.7027 17.0455C35.3647 17.0455 35.0983 17.1925 34.9037 17.4865C34.7105 17.7805 34.6132 18.1932 34.6118 18.7244H34.6459C34.7255 18.6037 34.8199 18.5007 34.9293 18.4155C35.0401 18.3288 35.1623 18.2621 35.2958 18.2152C35.4293 18.1683 35.5706 18.1449 35.7198 18.1449C35.9698 18.1449 36.1985 18.2074 36.4059 18.3324C36.6132 18.456 36.7794 18.6271 36.9044 18.8459C37.0294 19.0632 37.0919 19.3125 37.0919 19.5938C37.0919 19.8636 37.0316 20.1108 36.9108 20.3352C36.7901 20.5582 36.6203 20.7358 36.4016 20.8679C36.1843 20.9986 35.9286 21.0625 35.6346 21.0597ZM35.6346 20.5909C35.8135 20.5909 35.974 20.5462 36.1161 20.4567C36.2596 20.3672 36.3725 20.2472 36.4549 20.0966C36.5387 19.946 36.5806 19.7784 36.5806 19.5938C36.5806 19.4134 36.5401 19.2493 36.4591 19.1016C36.3796 18.9524 36.2695 18.8338 36.1289 18.7457C35.9897 18.6577 35.8306 18.6136 35.6516 18.6136C35.5167 18.6136 35.3909 18.6406 35.2745 18.6946C35.158 18.7472 35.0557 18.8196 34.9676 18.9119C34.881 19.0043 34.8128 19.1101 34.7631 19.2294C34.7134 19.3473 34.6885 19.4716 34.6885 19.6023C34.6885 19.7756 34.729 19.9375 34.81 20.0881C34.8924 20.2386 35.0046 20.3601 35.1466 20.4524C35.2901 20.5447 35.4527 20.5909 35.6346 20.5909ZM43.4662 21L45.4179 17.1392V17.1051H43.1679V16.6364H45.9634V17.1307L44.0202 21H43.4662ZM52.1576 21V20.6165L53.5979 19.0398C53.7669 18.8551 53.9061 18.6946 54.0155 18.5582C54.1249 18.4205 54.2059 18.2912 54.2584 18.1705C54.3124 18.0483 54.3394 17.9205 54.3394 17.7869C54.3394 17.6335 54.3025 17.5007 54.2286 17.3885C54.1561 17.2763 54.0567 17.1896 53.9303 17.1286C53.8039 17.0675 53.6618 17.0369 53.5042 17.0369C53.3365 17.0369 53.1902 17.0717 53.0652 17.1413C52.9417 17.2095 52.8458 17.3054 52.7776 17.429C52.7108 17.5526 52.6775 17.6974 52.6775 17.8636H52.1746C52.1746 17.608 52.2336 17.3835 52.3515 17.1903C52.4694 16.9972 52.6299 16.8466 52.833 16.7386C53.0375 16.6307 53.2669 16.5767 53.5212 16.5767C53.7769 16.5767 54.0034 16.6307 54.2009 16.7386C54.3983 16.8466 54.5532 16.9922 54.6654 17.1754C54.7776 17.3587 54.8337 17.5625 54.8337 17.7869C54.8337 17.9474 54.8046 18.1044 54.7463 18.2578C54.6895 18.4098 54.5901 18.5795 54.448 18.767C54.3074 18.9531 54.1121 19.1804 53.8621 19.4489L52.882 20.4972V20.5312H54.9104V21H52.1576ZM62.6137 21.0597C62.2926 21.0597 62.0192 20.9723 61.7934 20.7976C61.5675 20.6214 61.3949 20.3665 61.2756 20.0327C61.1563 19.6974 61.0966 19.2926 61.0966 18.8182C61.0966 18.3466 61.1563 17.9439 61.2756 17.6101C61.3963 17.2749 61.5696 17.0192 61.7955 16.843C62.0228 16.6655 62.2955 16.5767 62.6137 16.5767C62.9319 16.5767 63.2039 16.6655 63.4297 16.843C63.657 17.0192 63.8303 17.2749 63.9496 17.6101C64.0703 17.9439 64.1307 18.3466 64.1307 18.8182C64.1307 19.2926 64.0711 19.6974 63.9517 20.0327C63.8324 20.3665 63.6598 20.6214 63.434 20.7976C63.2081 20.9723 62.9347 21.0597 62.6137 21.0597ZM62.6137 20.5909C62.9319 20.5909 63.179 20.4375 63.3551 20.1307C63.5313 19.8239 63.6194 19.3864 63.6194 18.8182C63.6194 18.4403 63.5789 18.1186 63.4979 17.853C63.4184 17.5874 63.3033 17.3849 63.1527 17.2457C63.0036 17.1065 62.8239 17.0369 62.6137 17.0369C62.2983 17.0369 62.0519 17.1925 61.8743 17.5036C61.6968 17.8132 61.608 18.2514 61.608 18.8182C61.608 19.196 61.6478 19.517 61.7273 19.7812C61.8069 20.0455 61.9212 20.2464 62.0703 20.3842C62.2209 20.522 62.402 20.5909 62.6137 20.5909ZM71.704 21.0597C71.454 21.0597 71.2289 21.0099 71.0286 20.9105C70.8283 20.8111 70.6678 20.6747 70.5471 20.5014C70.4263 20.3281 70.3603 20.1307 70.3489 19.9091H70.8603C70.8801 20.1065 70.9696 20.2699 71.1287 20.3991C71.2892 20.527 71.481 20.5909 71.704 20.5909C71.883 20.5909 72.0421 20.549 72.1813 20.4652C72.3219 20.3814 72.432 20.2663 72.5115 20.12C72.5925 19.9723 72.633 19.8054 72.633 19.6193C72.633 19.429 72.5911 19.2592 72.5073 19.1101C72.4249 18.9595 72.3113 18.8409 72.1664 18.7543C72.0215 18.6676 71.856 18.6236 71.6699 18.6222C71.5364 18.6207 71.3993 18.6413 71.2587 18.6839C71.1181 18.7251 71.0023 18.7784 70.9114 18.8438L70.4171 18.7841L70.6813 16.6364H72.9483V17.1051H71.1245L70.9711 18.392H70.9966C71.0861 18.321 71.1983 18.2621 71.3333 18.2152C71.4682 18.1683 71.6088 18.1449 71.7551 18.1449C72.0222 18.1449 72.2601 18.2088 72.4689 18.3366C72.6792 18.4631 72.8439 18.6364 72.9632 18.8565C73.084 19.0767 73.1444 19.3281 73.1444 19.6108C73.1444 19.8892 73.0819 20.1378 72.9569 20.3565C72.8333 20.5739 72.6628 20.7457 72.4455 20.8722C72.2282 20.9972 71.981 21.0597 71.704 21.0597ZM80.8141 21.0597C80.493 21.0597 80.2196 20.9723 79.9938 20.7976C79.7679 20.6214 79.5953 20.3665 79.476 20.0327C79.3567 19.6974 79.297 19.2926 79.297 18.8182C79.297 18.3466 79.3567 17.9439 79.476 17.6101C79.5967 17.2749 79.77 17.0192 79.9959 16.843C80.2232 16.6655 80.4959 16.5767 80.8141 16.5767C81.1322 16.5767 81.4043 16.6655 81.6301 16.843C81.8574 17.0192 82.0307 17.2749 82.15 17.6101C82.2707 17.9439 82.3311 18.3466 82.3311 18.8182C82.3311 19.2926 82.2715 19.6974 82.1521 20.0327C82.0328 20.3665 81.8602 20.6214 81.6344 20.7976C81.4085 20.9723 81.1351 21.0597 80.8141 21.0597ZM80.8141 20.5909C81.1322 20.5909 81.3794 20.4375 81.5555 20.1307C81.7317 19.8239 81.8197 19.3864 81.8197 18.8182C81.8197 18.4403 81.7793 18.1186 81.6983 17.853C81.6188 17.5874 81.5037 17.3849 81.3531 17.2457C81.204 17.1065 81.0243 17.0369 80.8141 17.0369C80.4987 17.0369 80.2523 17.1925 80.0747 17.5036C79.8972 17.8132 79.8084 18.2514 79.8084 18.8182C79.8084 19.196 79.8482 19.517 79.9277 19.7812C80.0072 20.0455 80.1216 20.2464 80.2707 20.3842C80.4213 20.522 80.6024 20.5909 80.8141 20.5909ZM90.0749 16.6364V21H89.5464V17.1903H89.5209L88.4555 17.8977V17.3608L89.5464 16.6364H90.0749ZM98.1531 21.0597C97.8321 21.0597 97.5587 20.9723 97.3328 20.7976C97.107 20.6214 96.9344 20.3665 96.8151 20.0327C96.6957 19.6974 96.6361 19.2926 96.6361 18.8182C96.6361 18.3466 96.6957 17.9439 96.8151 17.6101C96.9358 17.2749 97.1091 17.0192 97.3349 16.843C97.5622 16.6655 97.8349 16.5767 98.1531 16.5767C98.4713 16.5767 98.7433 16.6655 98.9692 16.843C99.1964 17.0192 99.3697 17.2749 99.4891 17.6101C99.6098 17.9439 99.6702 18.3466 99.6702 18.8182C99.6702 19.2926 99.6105 19.6974 99.4912 20.0327C99.3719 20.3665 99.1993 20.6214 98.9734 20.7976C98.7476 20.9723 98.4741 21.0597 98.1531 21.0597ZM98.1531 20.5909C98.4713 20.5909 98.7185 20.4375 98.8946 20.1307C99.0707 19.8239 99.1588 19.3864 99.1588 18.8182C99.1588 18.4403 99.1183 18.1186 99.0374 17.853C98.9578 17.5874 98.8428 17.3849 98.6922 17.2457C98.543 17.1065 98.3633 17.0369 98.1531 17.0369C97.8378 17.0369 97.5913 17.1925 97.4138 17.5036C97.2362 17.8132 97.1474 18.2514 97.1474 18.8182C97.1474 19.196 97.1872 19.517 97.2668 19.7812C97.3463 20.0455 97.4607 20.2464 97.6098 20.3842C97.7604 20.522 97.9415 20.5909 98.1531 20.5909ZM107.269 16.5767C107.448 16.5781 107.627 16.6122 107.806 16.679C107.985 16.7457 108.148 16.8565 108.296 17.0114C108.444 17.1648 108.562 17.3743 108.652 17.6399C108.741 17.9055 108.786 18.2386 108.786 18.6392C108.786 19.027 108.749 19.3714 108.675 19.6726C108.603 19.9723 108.498 20.2251 108.36 20.4311C108.224 20.6371 108.057 20.7933 107.861 20.8999C107.667 21.0064 107.447 21.0597 107.201 21.0597C106.957 21.0597 106.738 21.0114 106.547 20.9148C106.356 20.8168 106.2 20.6811 106.078 20.5078C105.957 20.3331 105.88 20.1307 105.846 19.9006H106.366C106.412 20.1009 106.506 20.2663 106.645 20.397C106.785 20.5263 106.971 20.5909 107.201 20.5909C107.537 20.5909 107.803 20.4439 107.998 20.1499C108.194 19.8558 108.292 19.4403 108.292 18.9034H108.258C108.178 19.0227 108.084 19.1257 107.974 19.2124C107.865 19.299 107.743 19.3658 107.61 19.4126C107.476 19.4595 107.334 19.483 107.184 19.483C106.934 19.483 106.704 19.4212 106.496 19.2976C106.288 19.1726 106.122 19.0014 105.997 18.7841C105.873 18.5653 105.812 18.3153 105.812 18.0341C105.812 17.767 105.871 17.5227 105.991 17.3011C106.111 17.0781 106.28 16.9006 106.498 16.7685C106.716 16.6364 106.974 16.5724 107.269 16.5767ZM107.269 17.0455C107.09 17.0455 106.929 17.0902 106.785 17.1797C106.643 17.2678 106.53 17.3871 106.447 17.5376C106.364 17.6868 106.323 17.8523 106.323 18.0341C106.323 18.2159 106.363 18.3814 106.442 18.5305C106.523 18.6783 106.633 18.7962 106.773 18.8842C106.913 18.9709 107.073 19.0142 107.252 19.0142C107.387 19.0142 107.513 18.9879 107.629 18.9354C107.746 18.8814 107.847 18.8082 107.934 18.7159C108.022 18.6222 108.091 18.5163 108.14 18.3984C108.19 18.2791 108.215 18.1548 108.215 18.0256C108.215 17.8551 108.174 17.6953 108.091 17.5462C108.011 17.397 107.898 17.2763 107.755 17.1839C107.613 17.0916 107.451 17.0455 107.269 17.0455ZM116.422 21.0597C116.129 21.0597 115.871 21.0078 115.646 20.9041C115.423 20.799 115.249 20.6548 115.124 20.4716C114.999 20.2869 114.937 20.0767 114.939 19.8409C114.937 19.6562 114.974 19.4858 115.047 19.3295C115.121 19.1719 115.222 19.0405 115.35 18.9354C115.479 18.8288 115.623 18.7614 115.782 18.733V18.7074C115.574 18.6534 115.407 18.5362 115.284 18.3558C115.16 18.174 115.099 17.9673 115.101 17.7358C115.099 17.5142 115.155 17.3161 115.269 17.1413C115.383 16.9666 115.539 16.8288 115.738 16.728C115.938 16.6271 116.166 16.5767 116.422 16.5767C116.675 16.5767 116.9 16.6271 117.099 16.728C117.298 16.8288 117.454 16.9666 117.568 17.1413C117.683 17.3161 117.741 17.5142 117.743 17.7358C117.741 17.9673 117.678 18.174 117.553 18.3558C117.43 18.5362 117.265 18.6534 117.061 18.7074V18.733C117.219 18.7614 117.361 18.8288 117.487 18.9354C117.613 19.0405 117.714 19.1719 117.79 19.3295C117.865 19.4858 117.903 19.6562 117.905 19.8409C117.903 20.0767 117.839 20.2869 117.713 20.4716C117.588 20.6548 117.414 20.799 117.191 20.9041C116.969 21.0078 116.713 21.0597 116.422 21.0597ZM116.422 20.5909C116.619 20.5909 116.79 20.5589 116.933 20.495C117.077 20.4311 117.187 20.3409 117.265 20.2244C117.344 20.108 117.383 19.9716 117.385 19.8153C117.383 19.6506 117.341 19.505 117.257 19.3786C117.173 19.2521 117.059 19.1527 116.914 19.0803C116.77 19.0078 116.606 18.9716 116.422 18.9716C116.236 18.9716 116.069 19.0078 115.923 19.0803C115.778 19.1527 115.664 19.2521 115.58 19.3786C115.498 19.505 115.457 19.6506 115.459 19.8153C115.457 19.9716 115.495 20.108 115.572 20.2244C115.65 20.3409 115.761 20.4311 115.906 20.495C116.051 20.5589 116.223 20.5909 116.422 20.5909ZM116.422 18.5199C116.578 18.5199 116.716 18.4886 116.837 18.4261C116.959 18.3636 117.055 18.2763 117.125 18.1641C117.194 18.0518 117.23 17.9205 117.231 17.7699C117.23 17.6222 117.195 17.4936 117.127 17.3842C117.059 17.2734 116.964 17.1882 116.844 17.1286C116.723 17.0675 116.582 17.0369 116.422 17.0369C116.258 17.0369 116.116 17.0675 115.993 17.1286C115.871 17.1882 115.777 17.2734 115.71 17.3842C115.643 17.4936 115.611 17.6222 115.612 17.7699C115.611 17.9205 115.644 18.0518 115.712 18.1641C115.782 18.2763 115.878 18.3636 116 18.4261C116.122 18.4886 116.263 18.5199 116.422 18.5199ZM26.9858 28.6364V33H26.4574V29.1903H26.4318L25.3665 29.8977V29.3608L26.4574 28.6364H26.9858ZM33.7771 33L35.7288 29.1392V29.1051H33.4788V28.6364H36.2743V29.1307L34.3311 33H33.7771ZM43.8433 33.0597C43.5621 33.0597 43.3114 33.0114 43.0912 32.9148C42.8724 32.8182 42.6984 32.6839 42.5692 32.5121C42.4413 32.3388 42.3717 32.1378 42.3604 31.9091H42.8973C42.9087 32.0497 42.957 32.1712 43.0422 32.2734C43.1274 32.3743 43.2389 32.4524 43.3767 32.5078C43.5145 32.5632 43.6672 32.5909 43.8348 32.5909C44.0223 32.5909 44.1885 32.5582 44.3334 32.4929C44.4783 32.4276 44.5919 32.3366 44.6743 32.2202C44.7567 32.1037 44.7979 31.9688 44.7979 31.8153C44.7979 31.6548 44.7581 31.5135 44.6786 31.3913C44.599 31.2678 44.4825 31.1712 44.3291 31.1016C44.1757 31.032 43.9882 30.9972 43.7666 30.9972H43.4172V30.5284H43.7666C43.9399 30.5284 44.0919 30.4972 44.2226 30.4347C44.3547 30.3722 44.4577 30.2841 44.5315 30.1705C44.6068 30.0568 44.6445 29.9233 44.6445 29.7699C44.6445 29.6222 44.6118 29.4936 44.5464 29.3842C44.4811 29.2749 44.3888 29.1896 44.2695 29.1286C44.1516 29.0675 44.0124 29.0369 43.8518 29.0369C43.7013 29.0369 43.5592 29.0646 43.4257 29.12C43.2936 29.174 43.1857 29.2528 43.1018 29.3565C43.018 29.4588 42.9726 29.5824 42.9655 29.7273H42.4541C42.4626 29.4986 42.5315 29.2983 42.6608 29.1264C42.7901 28.9531 42.9591 28.8182 43.1679 28.7216C43.3781 28.625 43.6089 28.5767 43.8604 28.5767C44.1303 28.5767 44.3618 28.6314 44.555 28.7408C44.7482 28.8487 44.8966 28.9915 45.0003 29.169C45.104 29.3466 45.1558 29.5384 45.1558 29.7443C45.1558 29.9901 45.0912 30.1996 44.9619 30.3729C44.8341 30.5462 44.6601 30.6662 44.4399 30.733V30.767C44.7155 30.8125 44.9307 30.9297 45.0855 31.1186C45.2403 31.3061 45.3178 31.5384 45.3178 31.8153C45.3178 32.0526 45.2531 32.2656 45.1239 32.4545C44.996 32.642 44.8213 32.7898 44.5997 32.8977C44.3781 33.0057 44.126 33.0597 43.8433 33.0597ZM51.4869 32.1051V31.6705L53.4045 28.6364H53.7199V29.3097H53.5068L52.058 31.6023V31.6364H54.6403V32.1051H51.4869ZM53.5409 33V31.973V31.7706V28.6364H54.0438V33H53.5409ZM62.2024 33.0597C61.9524 33.0597 61.7273 33.0099 61.527 32.9105C61.3267 32.8111 61.1662 32.6747 61.0455 32.5014C60.9247 32.3281 60.8587 32.1307 60.8473 31.9091H61.3587C61.3786 32.1065 61.4681 32.2699 61.6272 32.3991C61.7877 32.527 61.9794 32.5909 62.2024 32.5909C62.3814 32.5909 62.5405 32.549 62.6797 32.4652C62.8203 32.3814 62.9304 32.2663 63.01 32.12C63.0909 31.9723 63.1314 31.8054 63.1314 31.6193C63.1314 31.429 63.0895 31.2592 63.0057 31.1101C62.9233 30.9595 62.8097 30.8409 62.6648 30.7543C62.5199 30.6676 62.3544 30.6236 62.1684 30.6222C62.0348 30.6207 61.8978 30.6413 61.7571 30.6839C61.6165 30.7251 61.5007 30.7784 61.4098 30.8438L60.9155 30.7841L61.1797 28.6364H63.4468V29.1051H61.6229L61.4695 30.392H61.4951C61.5846 30.321 61.6968 30.2621 61.8317 30.2152C61.9667 30.1683 62.1073 30.1449 62.2536 30.1449C62.5206 30.1449 62.7586 30.2088 62.9674 30.3366C63.1776 30.4631 63.3424 30.6364 63.4617 30.8565C63.5824 31.0767 63.6428 31.3281 63.6428 31.6108C63.6428 31.8892 63.5803 32.1378 63.4553 32.3565C63.3317 32.5739 63.1613 32.7457 62.9439 32.8722C62.7266 32.9972 62.4794 33.0597 62.2024 33.0597ZM71.3125 33.0597C70.9915 33.0597 70.718 32.9723 70.4922 32.7976C70.2663 32.6214 70.0938 32.3665 69.9744 32.0327C69.8551 31.6974 69.7955 31.2926 69.7955 30.8182C69.7955 30.3466 69.8551 29.9439 69.9744 29.6101C70.0952 29.2749 70.2685 29.0192 70.4943 28.843C70.7216 28.6655 70.9943 28.5767 71.3125 28.5767C71.6307 28.5767 71.9027 28.6655 72.1286 28.843C72.3558 29.0192 72.5291 29.2749 72.6484 29.6101C72.7692 29.9439 72.8295 30.3466 72.8295 30.8182C72.8295 31.2926 72.7699 31.6974 72.6506 32.0327C72.5312 32.3665 72.3587 32.6214 72.1328 32.7976C71.907 32.9723 71.6335 33.0597 71.3125 33.0597ZM71.3125 32.5909C71.6307 32.5909 71.8778 32.4375 72.054 32.1307C72.2301 31.8239 72.3182 31.3864 72.3182 30.8182C72.3182 30.4403 72.2777 30.1186 72.1967 29.853C72.1172 29.5874 72.0021 29.3849 71.8516 29.2457C71.7024 29.1065 71.5227 29.0369 71.3125 29.0369C70.9972 29.0369 70.7507 29.1925 70.5732 29.5036C70.3956 29.8132 70.3068 30.2514 70.3068 30.8182C70.3068 31.196 70.3466 31.517 70.4261 31.7812C70.5057 32.0455 70.62 32.2464 70.7692 32.3842C70.9197 32.522 71.1009 32.5909 71.3125 32.5909ZM80.5733 28.6364V33H80.0449V29.1903H80.0193L78.954 29.8977V29.3608L80.0449 28.6364H80.5733ZM88.6175 28.5767C88.7964 28.5781 88.9754 28.6122 89.1544 28.679C89.3334 28.7457 89.4967 28.8565 89.6445 29.0114C89.7922 29.1648 89.9108 29.3743 90.0003 29.6399C90.0898 29.9055 90.1345 30.2386 90.1345 30.6392C90.1345 31.027 90.0976 31.3714 90.0237 31.6726C89.9513 31.9723 89.8462 32.2251 89.7084 32.4311C89.572 32.6371 89.4058 32.7933 89.2098 32.8999C89.0152 33.0064 88.795 33.0597 88.5493 33.0597C88.305 33.0597 88.0869 33.0114 87.8952 32.9148C87.7048 32.8168 87.5486 32.6811 87.4264 32.5078C87.3057 32.3331 87.2283 32.1307 87.1942 31.9006H87.7141C87.7609 32.1009 87.854 32.2663 87.9932 32.397C88.1338 32.5263 88.3192 32.5909 88.5493 32.5909C88.8859 32.5909 89.1516 32.4439 89.3462 32.1499C89.5422 31.8558 89.6402 31.4403 89.6402 30.9034H89.6061C89.5266 31.0227 89.4321 31.1257 89.3227 31.2124C89.2134 31.299 89.0919 31.3658 88.9584 31.4126C88.8249 31.4595 88.6828 31.483 88.5322 31.483C88.2822 31.483 88.0528 31.4212 87.844 31.2976C87.6366 31.1726 87.4705 31.0014 87.3455 30.7841C87.2219 30.5653 87.1601 30.3153 87.1601 30.0341C87.1601 29.767 87.2197 29.5227 87.3391 29.3011C87.4598 29.0781 87.6288 28.9006 87.8462 28.7685C88.0649 28.6364 88.322 28.5724 88.6175 28.5767ZM88.6175 29.0455C88.4385 29.0455 88.2773 29.0902 88.1338 29.1797C87.9918 29.2678 87.8788 29.3871 87.795 29.5376C87.7126 29.6868 87.6714 29.8523 87.6714 30.0341C87.6714 30.2159 87.7112 30.3814 87.7908 30.5305C87.8717 30.6783 87.9818 30.7962 88.121 30.8842C88.2616 30.9709 88.4214 31.0142 88.6004 31.0142C88.7354 31.0142 88.8611 30.9879 88.9776 30.9354C89.094 30.8814 89.1956 30.8082 89.2822 30.7159C89.3703 30.6222 89.4392 30.5163 89.4889 30.3984C89.5386 30.2791 89.5635 30.1548 89.5635 30.0256C89.5635 29.8551 89.5223 29.6953 89.4399 29.5462C89.3589 29.397 89.2467 29.2763 89.1033 29.1839C88.9612 29.0916 88.7993 29.0455 88.6175 29.0455ZM97.8468 33.0597C97.5656 33.0597 97.3149 33.0114 97.0947 32.9148C96.876 32.8182 96.702 32.6839 96.5727 32.5121C96.4448 32.3388 96.3752 32.1378 96.3639 31.9091H96.9008C96.9122 32.0497 96.9605 32.1712 97.0457 32.2734C97.1309 32.3743 97.2424 32.4524 97.3802 32.5078C97.518 32.5632 97.6707 32.5909 97.8383 32.5909C98.0258 32.5909 98.192 32.5582 98.3369 32.4929C98.4818 32.4276 98.5954 32.3366 98.6778 32.2202C98.7602 32.1037 98.8014 31.9688 98.8014 31.8153C98.8014 31.6548 98.7616 31.5135 98.6821 31.3913C98.6025 31.2678 98.486 31.1712 98.3326 31.1016C98.1792 31.032 97.9917 30.9972 97.7701 30.9972H97.4207V30.5284H97.7701C97.9434 30.5284 98.0954 30.4972 98.2261 30.4347C98.3582 30.3722 98.4612 30.2841 98.535 30.1705C98.6103 30.0568 98.648 29.9233 98.648 29.7699C98.648 29.6222 98.6153 29.4936 98.55 29.3842C98.4846 29.2749 98.3923 29.1896 98.273 29.1286C98.1551 29.0675 98.0159 29.0369 97.8554 29.0369C97.7048 29.0369 97.5627 29.0646 97.4292 29.12C97.2971 29.174 97.1892 29.2528 97.1054 29.3565C97.0216 29.4588 96.9761 29.5824 96.969 29.7273H96.4576C96.4662 29.4986 96.535 29.2983 96.6643 29.1264C96.7936 28.9531 96.9626 28.8182 97.1714 28.7216C97.3816 28.625 97.6125 28.5767 97.8639 28.5767C98.1338 28.5767 98.3653 28.6314 98.5585 28.7408C98.7517 28.8487 98.9001 28.9915 99.0038 29.169C99.1075 29.3466 99.1593 29.5384 99.1593 29.7443C99.1593 29.9901 99.0947 30.1996 98.9654 30.3729C98.8376 30.5462 98.6636 30.6662 98.4434 30.733V30.767C98.719 30.8125 98.9342 30.9297 99.089 31.1186C99.2439 31.3061 99.3213 31.5384 99.3213 31.8153C99.3213 32.0526 99.2566 32.2656 99.1274 32.4545C98.9995 32.642 98.8248 32.7898 98.6032 32.8977C98.3816 33.0057 98.1295 33.0597 97.8468 33.0597ZM106.99 33.0597C106.698 33.0597 106.439 33.0078 106.215 32.9041C105.992 32.799 105.818 32.6548 105.693 32.4716C105.568 32.2869 105.506 32.0767 105.507 31.8409C105.506 31.6562 105.542 31.4858 105.616 31.3295C105.69 31.1719 105.791 31.0405 105.919 30.9354C106.048 30.8288 106.192 30.7614 106.351 30.733V30.7074C106.142 30.6534 105.976 30.5362 105.853 30.3558C105.729 30.174 105.668 29.9673 105.669 29.7358C105.668 29.5142 105.724 29.3161 105.838 29.1413C105.951 28.9666 106.108 28.8288 106.306 28.728C106.507 28.6271 106.735 28.5767 106.99 28.5767C107.243 28.5767 107.469 28.6271 107.668 28.728C107.867 28.8288 108.023 28.9666 108.137 29.1413C108.252 29.3161 108.31 29.5142 108.311 29.7358C108.31 29.9673 108.247 30.174 108.122 30.3558C107.998 30.5362 107.834 30.6534 107.63 30.7074V30.733C107.787 30.7614 107.929 30.8288 108.056 30.9354C108.182 31.0405 108.283 31.1719 108.358 31.3295C108.434 31.4858 108.472 31.6562 108.473 31.8409C108.472 32.0767 108.408 32.2869 108.282 32.4716C108.157 32.6548 107.983 32.799 107.76 32.9041C107.538 33.0078 107.282 33.0597 106.99 33.0597ZM106.99 32.5909C107.188 32.5909 107.358 32.5589 107.502 32.495C107.645 32.4311 107.756 32.3409 107.834 32.2244C107.912 32.108 107.952 31.9716 107.954 31.8153C107.952 31.6506 107.909 31.505 107.826 31.3786C107.742 31.2521 107.628 31.1527 107.483 31.0803C107.339 31.0078 107.175 30.9716 106.99 30.9716C106.804 30.9716 106.638 31.0078 106.492 31.0803C106.347 31.1527 106.233 31.2521 106.149 31.3786C106.066 31.505 106.026 31.6506 106.027 31.8153C106.026 31.9716 106.064 32.108 106.14 32.2244C106.218 32.3409 106.33 32.4311 106.475 32.495C106.62 32.5589 106.792 32.5909 106.99 32.5909ZM106.99 30.5199C107.147 30.5199 107.285 30.4886 107.406 30.4261C107.528 30.3636 107.624 30.2763 107.694 30.1641C107.763 30.0518 107.799 29.9205 107.8 29.7699C107.799 29.6222 107.764 29.4936 107.696 29.3842C107.628 29.2734 107.533 29.1882 107.412 29.1286C107.292 29.0675 107.151 29.0369 106.99 29.0369C106.827 29.0369 106.684 29.0675 106.562 29.1286C106.44 29.1882 106.346 29.2734 106.279 29.3842C106.212 29.4936 106.179 29.6222 106.181 29.7699C106.179 29.9205 106.213 30.0518 106.281 30.1641C106.351 30.2763 106.446 30.3636 106.569 30.4261C106.691 30.4886 106.831 30.5199 106.99 30.5199ZM114.588 32.1051V31.6705L116.505 28.6364H116.821V29.3097H116.608L115.159 31.6023V31.6364H117.741V32.1051H114.588ZM116.642 33V31.973V31.7706V28.6364H117.145V33H116.642ZM25.5881 45L27.5398 41.1392V41.1051H25.2898V40.6364H28.0852V41.1307L26.142 45H25.5881ZM35.5845 45.0597C35.3345 45.0597 35.1093 45.0099 34.9091 44.9105C34.7088 44.8111 34.5483 44.6747 34.4275 44.5014C34.3068 44.3281 34.2407 44.1307 34.2294 43.9091H34.7407C34.7606 44.1065 34.8501 44.2699 35.0092 44.3991C35.1697 44.527 35.3615 44.5909 35.5845 44.5909C35.7635 44.5909 35.9225 44.549 36.0618 44.4652C36.2024 44.3814 36.3125 44.2663 36.392 44.12C36.473 43.9723 36.5135 43.8054 36.5135 43.6193C36.5135 43.429 36.4716 43.2592 36.3877 43.1101C36.3054 42.9595 36.1917 42.8409 36.0468 42.7543C35.902 42.6676 35.7365 42.6236 35.5504 42.6222C35.4169 42.6207 35.2798 42.6413 35.1392 42.6839C34.9985 42.7251 34.8828 42.7784 34.7919 42.8438L34.2975 42.7841L34.5618 40.6364H36.8288V41.1051H35.0049L34.8515 42.392H34.8771C34.9666 42.321 35.0788 42.2621 35.2137 42.2152C35.3487 42.1683 35.4893 42.1449 35.6356 42.1449C35.9027 42.1449 36.1406 42.2088 36.3494 42.3366C36.5596 42.4631 36.7244 42.6364 36.8437 42.8565C36.9645 43.0767 37.0248 43.3281 37.0248 43.6108C37.0248 43.8892 36.9623 44.1378 36.8373 44.3565C36.7137 44.5739 36.5433 44.7457 36.326 44.8722C36.1086 44.9972 35.8615 45.0597 35.5845 45.0597ZM44.6945 45.0597C44.3735 45.0597 44.1001 44.9723 43.8742 44.7976C43.6484 44.6214 43.4758 44.3665 43.3565 44.0327C43.2371 43.6974 43.1775 43.2926 43.1775 42.8182C43.1775 42.3466 43.2371 41.9439 43.3565 41.6101C43.4772 41.2749 43.6505 41.0192 43.8763 40.843C44.1036 40.6655 44.3763 40.5767 44.6945 40.5767C45.0127 40.5767 45.2847 40.6655 45.5106 40.843C45.7379 41.0192 45.9111 41.2749 46.0305 41.6101C46.1512 41.9439 46.2116 42.3466 46.2116 42.8182C46.2116 43.2926 46.1519 43.6974 46.0326 44.0327C45.9133 44.3665 45.7407 44.6214 45.5148 44.7976C45.289 44.9723 45.0156 45.0597 44.6945 45.0597ZM44.6945 44.5909C45.0127 44.5909 45.2599 44.4375 45.436 44.1307C45.6121 43.8239 45.7002 43.3864 45.7002 42.8182C45.7002 42.4403 45.6597 42.1186 45.5788 41.853C45.4992 41.5874 45.3842 41.3849 45.2336 41.2457C45.0844 41.1065 44.9048 41.0369 44.6945 41.0369C44.3792 41.0369 44.1327 41.1925 43.9552 41.5036C43.7776 41.8132 43.6888 42.2514 43.6888 42.8182C43.6888 43.196 43.7286 43.517 43.8082 43.7812C43.8877 44.0455 44.0021 44.2464 44.1512 44.3842C44.3018 44.522 44.4829 44.5909 44.6945 44.5909ZM53.8104 40.5767C53.9894 40.5781 54.1684 40.6122 54.3474 40.679C54.5264 40.7457 54.6897 40.8565 54.8374 41.0114C54.9852 41.1648 55.1038 41.3743 55.1933 41.6399C55.2827 41.9055 55.3275 42.2386 55.3275 42.6392C55.3275 43.027 55.2906 43.3714 55.2167 43.6726C55.1442 43.9723 55.0391 44.2251 54.9014 44.4311C54.765 44.6371 54.5988 44.7933 54.4028 44.8999C54.2082 45.0064 53.988 45.0597 53.7423 45.0597C53.4979 45.0597 53.2799 45.0114 53.0881 44.9148C52.8978 44.8168 52.7415 44.6811 52.6194 44.5078C52.4987 44.3331 52.4212 44.1307 52.3871 43.9006H52.907C52.9539 44.1009 53.0469 44.2663 53.1862 44.397C53.3268 44.5263 53.5121 44.5909 53.7423 44.5909C54.0789 44.5909 54.3445 44.4439 54.5391 44.1499C54.7352 43.8558 54.8332 43.4403 54.8332 42.9034H54.7991C54.7195 43.0227 54.6251 43.1257 54.5157 43.2124C54.4063 43.299 54.2849 43.3658 54.1514 43.4126C54.0178 43.4595 53.8758 43.483 53.7252 43.483C53.4752 43.483 53.2458 43.4212 53.037 43.2976C52.8296 43.1726 52.6634 43.0014 52.5384 42.7841C52.4148 42.5653 52.3531 42.3153 52.3531 42.0341C52.3531 41.767 52.4127 41.5227 52.532 41.3011C52.6528 41.0781 52.8218 40.9006 53.0391 40.7685C53.2579 40.6364 53.515 40.5724 53.8104 40.5767ZM53.8104 41.0455C53.6315 41.0455 53.4702 41.0902 53.3268 41.1797C53.1847 41.2678 53.0718 41.3871 52.988 41.5376C52.9056 41.6868 52.8644 41.8523 52.8644 42.0341C52.8644 42.2159 52.9042 42.3814 52.9837 42.5305C53.0647 42.6783 53.1748 42.7962 53.314 42.8842C53.4546 42.9709 53.6144 43.0142 53.7934 43.0142C53.9283 43.0142 54.054 42.9879 54.1705 42.9354C54.287 42.8814 54.3886 42.8082 54.4752 42.7159C54.5633 42.6222 54.6322 42.5163 54.6819 42.3984C54.7316 42.2791 54.7565 42.1548 54.7565 42.0256C54.7565 41.8551 54.7153 41.6953 54.6329 41.5462C54.5519 41.397 54.4397 41.2763 54.2962 41.1839C54.1542 41.0916 53.9923 41.0455 53.8104 41.0455ZM62.9631 45.0597C62.6705 45.0597 62.412 45.0078 62.1875 44.9041C61.9645 44.799 61.7905 44.6548 61.6655 44.4716C61.5405 44.2869 61.4787 44.0767 61.4801 43.8409C61.4787 43.6562 61.5149 43.4858 61.5888 43.3295C61.6627 43.1719 61.7635 43.0405 61.8914 42.9354C62.0206 42.8288 62.1648 42.7614 62.3239 42.733V42.7074C62.1151 42.6534 61.9489 42.5362 61.8253 42.3558C61.7017 42.174 61.6407 41.9673 61.6421 41.7358C61.6407 41.5142 61.6968 41.3161 61.8104 41.1413C61.924 40.9666 62.0803 40.8288 62.2792 40.728C62.4794 40.6271 62.7074 40.5767 62.9631 40.5767C63.2159 40.5767 63.4418 40.6271 63.6407 40.728C63.8395 40.8288 63.9958 40.9666 64.1094 41.1413C64.2245 41.3161 64.2827 41.5142 64.2841 41.7358C64.2827 41.9673 64.2195 42.174 64.0945 42.3558C63.9709 42.5362 63.8069 42.6534 63.6023 42.7074V42.733C63.76 42.7614 63.902 42.8288 64.0284 42.9354C64.1549 43.0405 64.2557 43.1719 64.331 43.3295C64.4063 43.4858 64.4446 43.6562 64.4461 43.8409C64.4446 44.0767 64.3807 44.2869 64.2543 44.4716C64.1293 44.6548 63.9553 44.799 63.7323 44.9041C63.5107 45.0078 63.2543 45.0597 62.9631 45.0597ZM62.9631 44.5909C63.1605 44.5909 63.331 44.5589 63.4745 44.495C63.6179 44.4311 63.7287 44.3409 63.8069 44.2244C63.885 44.108 63.9247 43.9716 63.9262 43.8153C63.9247 43.6506 63.8821 43.505 63.7983 43.3786C63.7145 43.2521 63.6002 43.1527 63.4553 43.0803C63.3118 43.0078 63.1478 42.9716 62.9631 42.9716C62.777 42.9716 62.6108 43.0078 62.4645 43.0803C62.3196 43.1527 62.2053 43.2521 62.1215 43.3786C62.0391 43.505 61.9986 43.6506 62 43.8153C61.9986 43.9716 62.0363 44.108 62.113 44.2244C62.1911 44.3409 62.3026 44.4311 62.4475 44.495C62.5924 44.5589 62.7642 44.5909 62.9631 44.5909ZM62.9631 42.5199C63.1194 42.5199 63.2578 42.4886 63.3786 42.4261C63.5007 42.3636 63.5966 42.2763 63.6662 42.1641C63.7358 42.0518 63.7713 41.9205 63.7728 41.7699C63.7713 41.6222 63.7365 41.4936 63.6684 41.3842C63.6002 41.2734 63.5057 41.1882 63.385 41.1286C63.2642 41.0675 63.1236 41.0369 62.9631 41.0369C62.7997 41.0369 62.657 41.0675 62.5348 41.1286C62.4127 41.1882 62.3182 41.2734 62.2515 41.3842C62.1847 41.4936 62.152 41.6222 62.1534 41.7699C62.152 41.9205 62.1854 42.0518 62.2536 42.1641C62.3232 42.2763 62.4191 42.3636 62.5412 42.4261C62.6634 42.4886 62.804 42.5199 62.9631 42.5199ZM70.799 45L72.7507 41.1392V41.1051H70.5007V40.6364H73.2962V41.1307L71.353 45H70.799ZM79.0365 44.1051V43.6705L80.9542 40.6364H81.2695V41.3097H81.0564L79.6076 43.6023V43.6364H82.19V44.1051H79.0365ZM81.0905 45V43.973V43.7706V40.6364H81.5934V45H81.0905ZM89.7521 45.0597C89.5021 45.0597 89.2769 45.0099 89.0766 44.9105C88.8763 44.8111 88.7158 44.6747 88.5951 44.5014C88.4744 44.3281 88.4083 44.1307 88.3969 43.9091H88.9083C88.9282 44.1065 89.0177 44.2699 89.1768 44.3991C89.3373 44.527 89.529 44.5909 89.7521 44.5909C89.931 44.5909 90.0901 44.549 90.2293 44.4652C90.37 44.3814 90.48 44.2663 90.5596 44.12C90.6406 43.9723 90.681 43.8054 90.681 43.6193C90.681 43.429 90.6391 43.2592 90.5553 43.1101C90.4729 42.9595 90.3593 42.8409 90.2144 42.7543C90.0695 42.6676 89.904 42.6236 89.718 42.6222C89.5844 42.6207 89.4474 42.6413 89.3067 42.6839C89.1661 42.7251 89.0504 42.7784 88.9594 42.8438L88.4651 42.7841L88.7293 40.6364H90.9964V41.1051H89.1725L89.0191 42.392H89.0447C89.1342 42.321 89.2464 42.2621 89.3813 42.2152C89.5163 42.1683 89.6569 42.1449 89.8032 42.1449C90.0702 42.1449 90.3082 42.2088 90.517 42.3366C90.7272 42.4631 90.892 42.6364 91.0113 42.8565C91.132 43.0767 91.1924 43.3281 91.1924 43.6108C91.1924 43.8892 91.1299 44.1378 91.0049 44.3565C90.8813 44.5739 90.7109 44.7457 90.4935 44.8722C90.2762 44.9972 90.029 45.0597 89.7521 45.0597ZM98.8621 45.0597C98.5411 45.0597 98.2676 44.9723 98.0418 44.7976C97.8159 44.6214 97.6434 44.3665 97.524 44.0327C97.4047 43.6974 97.3451 43.2926 97.3451 42.8182C97.3451 42.3466 97.4047 41.9439 97.524 41.6101C97.6448 41.2749 97.8181 41.0192 98.0439 40.843C98.2712 40.6655 98.5439 40.5767 98.8621 40.5767C99.1803 40.5767 99.4523 40.6655 99.6782 40.843C99.9054 41.0192 100.079 41.2749 100.198 41.6101C100.319 41.9439 100.379 42.3466 100.379 42.8182C100.379 43.2926 100.319 43.6974 100.2 44.0327C100.081 44.3665 99.9083 44.6214 99.6824 44.7976C99.4566 44.9723 99.1831 45.0597 98.8621 45.0597ZM98.8621 44.5909C99.1803 44.5909 99.4274 44.4375 99.6036 44.1307C99.7797 43.8239 99.8678 43.3864 99.8678 42.8182C99.8678 42.4403 99.8273 42.1186 99.7463 41.853C99.6668 41.5874 99.5517 41.3849 99.4012 41.2457C99.252 41.1065 99.0723 41.0369 98.8621 41.0369C98.5468 41.0369 98.3003 41.1925 98.1228 41.5036C97.9452 41.8132 97.8564 42.2514 97.8564 42.8182C97.8564 43.196 97.8962 43.517 97.9757 43.7812C98.0553 44.0455 98.1696 44.2464 98.3188 44.3842C98.4694 44.522 98.6505 44.5909 98.8621 44.5909ZM108.123 40.6364V45H107.594V41.1903H107.569L106.504 41.8977V41.3608L107.594 40.6364H108.123ZM116.167 40.5767C116.346 40.5781 116.525 40.6122 116.704 40.679C116.883 40.7457 117.046 40.8565 117.194 41.0114C117.342 41.1648 117.46 41.3743 117.55 41.6399C117.639 41.9055 117.684 42.2386 117.684 42.6392C117.684 43.027 117.647 43.3714 117.573 43.6726C117.501 43.9723 117.396 44.2251 117.258 44.4311C117.122 44.6371 116.955 44.7933 116.759 44.8999C116.565 45.0064 116.345 45.0597 116.099 45.0597C115.855 45.0597 115.637 45.0114 115.445 44.9148C115.254 44.8168 115.098 44.6811 114.976 44.5078C114.855 44.3331 114.778 44.1307 114.744 43.9006H115.264C115.311 44.1009 115.404 44.2663 115.543 44.397C115.683 44.5263 115.869 44.5909 116.099 44.5909C116.436 44.5909 116.701 44.4439 116.896 44.1499C117.092 43.8558 117.19 43.4403 117.19 42.9034H117.156C117.076 43.0227 116.982 43.1257 116.872 43.2124C116.763 43.299 116.642 43.3658 116.508 43.4126C116.374 43.4595 116.232 43.483 116.082 43.483C115.832 43.483 115.602 43.4212 115.394 43.2976C115.186 43.1726 115.02 43.0014 114.895 42.7841C114.771 42.5653 114.71 42.3153 114.71 42.0341C114.71 41.767 114.769 41.5227 114.889 41.3011C115.009 41.0781 115.178 40.9006 115.396 40.7685C115.615 40.6364 115.872 40.5724 116.167 40.5767ZM116.167 41.0455C115.988 41.0455 115.827 41.0902 115.683 41.1797C115.541 41.2678 115.428 41.3871 115.345 41.5376C115.262 41.6868 115.221 41.8523 115.221 42.0341C115.221 42.2159 115.261 42.3814 115.34 42.5305C115.421 42.6783 115.531 42.7962 115.671 42.8842C115.811 42.9709 115.971 43.0142 116.15 43.0142C116.285 43.0142 116.411 42.9879 116.527 42.9354C116.644 42.8814 116.745 42.8082 116.832 42.7159C116.92 42.6222 116.989 42.5163 117.039 42.3984C117.088 42.2791 117.113 42.1548 117.113 42.0256C117.113 41.8551 117.072 41.6953 116.99 41.5462C116.909 41.397 116.796 41.2763 116.653 41.1839C116.511 41.0916 116.349 41.0455 116.167 41.0455ZM26.8494 57.0597C26.5568 57.0597 26.2983 57.0078 26.0739 56.9041C25.8509 56.799 25.6768 56.6548 25.5518 56.4716C25.4268 56.2869 25.3651 56.0767 25.3665 55.8409C25.3651 55.6562 25.4013 55.4858 25.4751 55.3295C25.549 55.1719 25.6499 55.0405 25.7777 54.9354C25.907 54.8288 26.0511 54.7614 26.2102 54.733V54.7074C26.0014 54.6534 25.8352 54.5362 25.7116 54.3558C25.5881 54.174 25.527 53.9673 25.5284 53.7358C25.527 53.5142 25.5831 53.3161 25.6967 53.1413C25.8104 52.9666 25.9666 52.8288 26.1655 52.728C26.3658 52.6271 26.5938 52.5767 26.8494 52.5767C27.1023 52.5767 27.3281 52.6271 27.527 52.728C27.7259 52.8288 27.8821 52.9666 27.9957 53.1413C28.1108 53.3161 28.169 53.5142 28.1705 53.7358C28.169 53.9673 28.1058 54.174 27.9808 54.3558C27.8572 54.5362 27.6932 54.6534 27.4886 54.7074V54.733C27.6463 54.7614 27.7884 54.8288 27.9148 54.9354C28.0412 55.0405 28.142 55.1719 28.2173 55.3295C28.2926 55.4858 28.331 55.6562 28.3324 55.8409C28.331 56.0767 28.267 56.2869 28.1406 56.4716C28.0156 56.6548 27.8416 56.799 27.6186 56.9041C27.397 57.0078 27.1406 57.0597 26.8494 57.0597ZM26.8494 56.5909C27.0469 56.5909 27.2173 56.5589 27.3608 56.495C27.5043 56.4311 27.6151 56.3409 27.6932 56.2244C27.7713 56.108 27.8111 55.9716 27.8125 55.8153C27.8111 55.6506 27.7685 55.505 27.6847 55.3786C27.6009 55.2521 27.4865 55.1527 27.3416 55.0803C27.1982 55.0078 27.0341 54.9716 26.8494 54.9716C26.6634 54.9716 26.4972 55.0078 26.3509 55.0803C26.206 55.1527 26.0916 55.2521 26.0078 55.3786C25.9254 55.505 25.8849 55.6506 25.8864 55.8153C25.8849 55.9716 25.9226 56.108 25.9993 56.2244C26.0774 56.3409 26.1889 56.4311 26.3338 56.495C26.4787 56.5589 26.6506 56.5909 26.8494 56.5909ZM26.8494 54.5199C27.0057 54.5199 27.1442 54.4886 27.2649 54.4261C27.3871 54.3636 27.483 54.2763 27.5526 54.1641C27.6222 54.0518 27.6577 53.9205 27.6591 53.7699C27.6577 53.6222 27.6229 53.4936 27.5547 53.3842C27.4865 53.2734 27.392 53.1882 27.2713 53.1286C27.1506 53.0675 27.0099 53.0369 26.8494 53.0369C26.6861 53.0369 26.5433 53.0675 26.4212 53.1286C26.299 53.1882 26.2045 53.2734 26.1378 53.3842C26.071 53.4936 26.0384 53.6222 26.0398 53.7699C26.0384 53.9205 26.0717 54.0518 26.1399 54.1641C26.2095 54.2763 26.3054 54.3636 26.4276 54.4261C26.5497 54.4886 26.6903 54.5199 26.8494 54.5199ZM36.0234 57.0597C35.7422 57.0597 35.4914 57.0114 35.2713 56.9148C35.0525 56.8182 34.8785 56.6839 34.7493 56.5121C34.6214 56.3388 34.5518 56.1378 34.5404 55.9091H35.0774C35.0887 56.0497 35.137 56.1712 35.2223 56.2734C35.3075 56.3743 35.419 56.4524 35.5568 56.5078C35.6946 56.5632 35.8473 56.5909 36.0149 56.5909C36.2024 56.5909 36.3686 56.5582 36.5135 56.4929C36.6583 56.4276 36.772 56.3366 36.8544 56.2202C36.9368 56.1037 36.9779 55.9688 36.9779 55.8153C36.9779 55.6548 36.9382 55.5135 36.8586 55.3913C36.7791 55.2678 36.6626 55.1712 36.5092 55.1016C36.3558 55.032 36.1683 54.9972 35.9467 54.9972H35.5973V54.5284H35.9467C36.12 54.5284 36.272 54.4972 36.4027 54.4347C36.5348 54.3722 36.6377 54.2841 36.7116 54.1705C36.7869 54.0568 36.8245 53.9233 36.8245 53.7699C36.8245 53.6222 36.7919 53.4936 36.7265 53.3842C36.6612 53.2749 36.5689 53.1896 36.4495 53.1286C36.3316 53.0675 36.1924 53.0369 36.0319 53.0369C35.8814 53.0369 35.7393 53.0646 35.6058 53.12C35.4737 53.174 35.3657 53.2528 35.2819 53.3565C35.1981 53.4588 35.1527 53.5824 35.1456 53.7273H34.6342C34.6427 53.4986 34.7116 53.2983 34.8409 53.1264C34.9701 52.9531 35.1392 52.8182 35.348 52.7216C35.5582 52.625 35.789 52.5767 36.0404 52.5767C36.3103 52.5767 36.5419 52.6314 36.735 52.7408C36.9282 52.8487 37.0767 52.9915 37.1804 53.169C37.2841 53.3466 37.3359 53.5384 37.3359 53.7443C37.3359 53.9901 37.2713 54.1996 37.142 54.3729C37.0142 54.5462 36.8402 54.6662 36.62 54.733V54.767C36.8956 54.8125 37.1108 54.9297 37.2656 55.1186C37.4204 55.3061 37.4978 55.5384 37.4978 55.8153C37.4978 56.0526 37.4332 56.2656 37.3039 56.4545C37.1761 56.642 37.0014 56.7898 36.7798 56.8977C36.5582 57.0057 36.3061 57.0597 36.0234 57.0597ZM43.667 56.1051V55.6705L45.5846 52.6364H45.9V53.3097H45.6869L44.238 55.6023V55.6364H46.8204V56.1051H43.667ZM45.721 57V55.973V55.7706V52.6364H46.2238V57H45.721ZM53.1553 57L55.107 53.1392V53.1051H52.857V52.6364H55.6524V53.1307L53.7092 57H53.1553ZM63.1517 57.0597C62.9017 57.0597 62.6765 57.0099 62.4762 56.9105C62.276 56.8111 62.1154 56.6747 61.9947 56.5014C61.874 56.3281 61.8079 56.1307 61.7966 55.9091H62.3079C62.3278 56.1065 62.4173 56.2699 62.5764 56.3991C62.7369 56.527 62.9287 56.5909 63.1517 56.5909C63.3306 56.5909 63.4897 56.549 63.6289 56.4652C63.7696 56.3814 63.8797 56.2663 63.9592 56.12C64.0402 55.9723 64.0806 55.8054 64.0806 55.6193C64.0806 55.429 64.0387 55.2592 63.9549 55.1101C63.8725 54.9595 63.7589 54.8409 63.614 54.7543C63.4691 54.6676 63.3037 54.6236 63.1176 54.6222C62.9841 54.6207 62.847 54.6413 62.7064 54.6839C62.5657 54.7251 62.45 54.7784 62.3591 54.8438L61.8647 54.7841L62.1289 52.6364H64.396V53.1051H62.5721L62.4187 54.392H62.4443C62.5338 54.321 62.646 54.2621 62.7809 54.2152C62.9159 54.1683 63.0565 54.1449 63.2028 54.1449C63.4698 54.1449 63.7078 54.2088 63.9166 54.3366C64.1268 54.4631 64.2916 54.6364 64.4109 54.8565C64.5316 55.0767 64.592 55.3281 64.592 55.6108C64.592 55.8892 64.5295 56.1378 64.4045 56.3565C64.2809 56.5739 64.1105 56.7457 63.8931 56.8722C63.6758 56.9972 63.4287 57.0597 63.1517 57.0597ZM72.2617 57.0597C71.9407 57.0597 71.6673 56.9723 71.4414 56.7976C71.2156 56.6214 71.043 56.3665 70.9237 56.0327C70.8043 55.6974 70.7447 55.2926 70.7447 54.8182C70.7447 54.3466 70.8043 53.9439 70.9237 53.6101C71.0444 53.2749 71.2177 53.0192 71.4435 52.843C71.6708 52.6655 71.9435 52.5767 72.2617 52.5767C72.5799 52.5767 72.8519 52.6655 73.0778 52.843C73.305 53.0192 73.4783 53.2749 73.5977 53.6101C73.7184 53.9439 73.7788 54.3466 73.7788 54.8182C73.7788 55.2926 73.7191 55.6974 73.5998 56.0327C73.4805 56.3665 73.3079 56.6214 73.082 56.7976C72.8562 56.9723 72.5827 57.0597 72.2617 57.0597ZM72.2617 56.5909C72.5799 56.5909 72.8271 56.4375 73.0032 56.1307C73.1793 55.8239 73.2674 55.3864 73.2674 54.8182C73.2674 54.4403 73.2269 54.1186 73.146 53.853C73.0664 53.5874 72.9513 53.3849 72.8008 53.2457C72.6516 53.1065 72.4719 53.0369 72.2617 53.0369C71.9464 53.0369 71.6999 53.1925 71.5224 53.5036C71.3448 53.8132 71.256 54.2514 71.256 54.8182C71.256 55.196 71.2958 55.517 71.3754 55.7812C71.4549 56.0455 71.5692 56.2464 71.7184 56.3842C71.869 56.522 72.0501 56.5909 72.2617 56.5909ZM81.5225 52.6364V57H80.9941V53.1903H80.9685L79.9032 53.8977V53.3608L80.9941 52.6364H81.5225ZM89.5667 52.5767C89.7457 52.5781 89.9246 52.6122 90.1036 52.679C90.2826 52.7457 90.446 52.8565 90.5937 53.0114C90.7414 53.1648 90.86 53.3743 90.9495 53.6399C91.039 53.9055 91.0837 54.2386 91.0837 54.6392C91.0837 55.027 91.0468 55.3714 90.9729 55.6726C90.9005 55.9723 90.7954 56.2251 90.6576 56.4311C90.5212 56.6371 90.355 56.7933 90.159 56.8999C89.9644 57.0064 89.7442 57.0597 89.4985 57.0597C89.2542 57.0597 89.0361 57.0114 88.8444 56.9148C88.654 56.8168 88.4978 56.6811 88.3756 56.5078C88.2549 56.3331 88.1775 56.1307 88.1434 55.9006H88.6633C88.7102 56.1009 88.8032 56.2663 88.9424 56.397C89.083 56.5263 89.2684 56.5909 89.4985 56.5909C89.8352 56.5909 90.1008 56.4439 90.2954 56.1499C90.4914 55.8558 90.5894 55.4403 90.5894 54.9034H90.5553C90.4758 55.0227 90.3813 55.1257 90.2719 55.2124C90.1626 55.299 90.0411 55.3658 89.9076 55.4126C89.7741 55.4595 89.632 55.483 89.4815 55.483C89.2315 55.483 89.0021 55.4212 88.7933 55.2976C88.5859 55.1726 88.4197 55.0014 88.2947 54.7841C88.1711 54.5653 88.1093 54.3153 88.1093 54.0341C88.1093 53.767 88.169 53.5227 88.2883 53.3011C88.409 53.0781 88.5781 52.9006 88.7954 52.7685C89.0141 52.6364 89.2712 52.5724 89.5667 52.5767ZM89.5667 53.0455C89.3877 53.0455 89.2265 53.0902 89.083 53.1797C88.941 53.2678 88.8281 53.3871 88.7442 53.5376C88.6619 53.6868 88.6207 53.8523 88.6207 54.0341C88.6207 54.2159 88.6604 54.3814 88.74 54.5305C88.821 54.6783 88.931 54.7962 89.0702 54.8842C89.2109 54.9709 89.3707 55.0142 89.5496 55.0142C89.6846 55.0142 89.8103 54.9879 89.9268 54.9354C90.0433 54.8814 90.1448 54.8082 90.2315 54.7159C90.3195 54.6222 90.3884 54.5163 90.4381 54.3984C90.4879 54.2791 90.5127 54.1548 90.5127 54.0256C90.5127 53.8551 90.4715 53.6953 90.3891 53.5462C90.3082 53.397 90.196 53.2763 90.0525 53.1839C89.9104 53.0916 89.7485 53.0455 89.5667 53.0455ZM98.7961 57.0597C98.5148 57.0597 98.2641 57.0114 98.0439 56.9148C97.8252 56.8182 97.6512 56.6839 97.5219 56.5121C97.3941 56.3388 97.3245 56.1378 97.3131 55.9091H97.85C97.8614 56.0497 97.9097 56.1712 97.9949 56.2734C98.0801 56.3743 98.1917 56.4524 98.3294 56.5078C98.4672 56.5632 98.6199 56.5909 98.7875 56.5909C98.975 56.5909 99.1412 56.5582 99.2861 56.4929C99.431 56.4276 99.5446 56.3366 99.627 56.2202C99.7094 56.1037 99.7506 55.9688 99.7506 55.8153C99.7506 55.6548 99.7108 55.5135 99.6313 55.3913C99.5517 55.2678 99.4353 55.1712 99.2819 55.1016C99.1284 55.032 98.9409 54.9972 98.7194 54.9972H98.3699V54.5284H98.7194C98.8926 54.5284 99.0446 54.4972 99.1753 54.4347C99.3074 54.3722 99.4104 54.2841 99.4843 54.1705C99.5595 54.0568 99.5972 53.9233 99.5972 53.7699C99.5972 53.6222 99.5645 53.4936 99.4992 53.3842C99.4338 53.2749 99.3415 53.1896 99.2222 53.1286C99.1043 53.0675 98.9651 53.0369 98.8046 53.0369C98.654 53.0369 98.512 53.0646 98.3784 53.12C98.2463 53.174 98.1384 53.2528 98.0546 53.3565C97.9708 53.4588 97.9253 53.5824 97.9182 53.7273H97.4069C97.4154 53.4986 97.4843 53.2983 97.6135 53.1264C97.7428 52.9531 97.9118 52.8182 98.1206 52.7216C98.3309 52.625 98.5617 52.5767 98.8131 52.5767C99.083 52.5767 99.3145 52.6314 99.5077 52.7408C99.7009 52.8487 99.8493 52.9915 99.953 53.169C100.057 53.3466 100.109 53.5384 100.109 53.7443C100.109 53.9901 100.044 54.1996 99.9147 54.3729C99.7868 54.5462 99.6128 54.6662 99.3926 54.733V54.767C99.6682 54.8125 99.8834 54.9297 100.038 55.1186C100.193 55.3061 100.27 55.5384 100.27 55.8153C100.27 56.0526 100.206 56.2656 100.077 56.4545C99.9488 56.642 99.774 56.7898 99.5524 56.8977C99.3309 57.0057 99.0787 57.0597 98.7961 57.0597ZM107.94 57.0597C107.647 57.0597 107.389 57.0078 107.164 56.9041C106.941 56.799 106.767 56.6548 106.642 56.4716C106.517 56.2869 106.455 56.0767 106.457 55.8409C106.455 55.6562 106.492 55.4858 106.565 55.3295C106.639 55.1719 106.74 55.0405 106.868 54.9354C106.997 54.8288 107.141 54.7614 107.3 54.733V54.7074C107.092 54.6534 106.925 54.5362 106.802 54.3558C106.678 54.174 106.617 53.9673 106.619 53.7358C106.617 53.5142 106.673 53.3161 106.787 53.1413C106.901 52.9666 107.057 52.8288 107.256 52.728C107.456 52.6271 107.684 52.5767 107.94 52.5767C108.193 52.5767 108.418 52.6271 108.617 52.728C108.816 52.8288 108.972 52.9666 109.086 53.1413C109.201 53.3161 109.259 53.5142 109.261 53.7358C109.259 53.9673 109.196 54.174 109.071 54.3558C108.947 54.5362 108.783 54.6534 108.579 54.7074V54.733C108.737 54.7614 108.879 54.8288 109.005 54.9354C109.131 55.0405 109.232 55.1719 109.308 55.3295C109.383 55.4858 109.421 55.6562 109.423 55.8409C109.421 56.0767 109.357 56.2869 109.231 56.4716C109.106 56.6548 108.932 56.799 108.709 56.9041C108.487 57.0078 108.231 57.0597 107.94 57.0597ZM107.94 56.5909C108.137 56.5909 108.308 56.5589 108.451 56.495C108.594 56.4311 108.705 56.3409 108.783 56.2244C108.862 56.108 108.901 55.9716 108.903 55.8153C108.901 55.6506 108.859 55.505 108.775 55.3786C108.691 55.2521 108.577 55.1527 108.432 55.0803C108.288 55.0078 108.124 54.9716 107.94 54.9716C107.754 54.9716 107.587 55.0078 107.441 55.0803C107.296 55.1527 107.182 55.2521 107.098 55.3786C107.016 55.505 106.975 55.6506 106.977 55.8153C106.975 55.9716 107.013 56.108 107.09 56.2244C107.168 56.3409 107.279 56.4311 107.424 56.495C107.569 56.5589 107.741 56.5909 107.94 56.5909ZM107.94 54.5199C108.096 54.5199 108.234 54.4886 108.355 54.4261C108.477 54.3636 108.573 54.2763 108.643 54.1641C108.712 54.0518 108.748 53.9205 108.749 53.7699C108.748 53.6222 108.713 53.4936 108.645 53.3842C108.577 53.2734 108.482 53.1882 108.362 53.1286C108.241 53.0675 108.1 53.0369 107.94 53.0369C107.776 53.0369 107.634 53.0675 107.511 53.1286C107.389 53.1882 107.295 53.2734 107.228 53.3842C107.161 53.4936 107.129 53.6222 107.13 53.7699C107.129 53.9205 107.162 54.0518 107.23 54.1641C107.3 54.2763 107.396 54.3636 107.518 54.4261C107.64 54.4886 107.781 54.5199 107.94 54.5199ZM115.537 56.1051V55.6705L117.455 52.6364H117.77V53.3097H117.557L116.108 55.6023V55.6364H118.69V56.1051H115.537ZM117.591 57V55.973V55.7706V52.6364H118.094V57H117.591ZM25.5881 69L27.5398 65.1392V65.1051H25.2898V64.6364H28.0852V65.1307L26.142 69H25.5881ZM35.5845 69.0597C35.3345 69.0597 35.1093 69.0099 34.9091 68.9105C34.7088 68.8111 34.5483 68.6747 34.4275 68.5014C34.3068 68.3281 34.2407 68.1307 34.2294 67.9091H34.7407C34.7606 68.1065 34.8501 68.2699 35.0092 68.3991C35.1697 68.527 35.3615 68.5909 35.5845 68.5909C35.7635 68.5909 35.9225 68.549 36.0618 68.4652C36.2024 68.3814 36.3125 68.2663 36.392 68.12C36.473 67.9723 36.5135 67.8054 36.5135 67.6193C36.5135 67.429 36.4716 67.2592 36.3877 67.1101C36.3054 66.9595 36.1917 66.8409 36.0468 66.7543C35.902 66.6676 35.7365 66.6236 35.5504 66.6222C35.4169 66.6207 35.2798 66.6413 35.1392 66.6839C34.9985 66.7251 34.8828 66.7784 34.7919 66.8438L34.2975 66.7841L34.5618 64.6364H36.8288V65.1051H35.0049L34.8515 66.392H34.8771C34.9666 66.321 35.0788 66.2621 35.2137 66.2152C35.3487 66.1683 35.4893 66.1449 35.6356 66.1449C35.9027 66.1449 36.1406 66.2088 36.3494 66.3366C36.5596 66.4631 36.7244 66.6364 36.8437 66.8565C36.9645 67.0767 37.0248 67.3281 37.0248 67.6108C37.0248 67.8892 36.9623 68.1378 36.8373 68.3565C36.7137 68.5739 36.5433 68.7457 36.326 68.8722C36.1086 68.9972 35.8615 69.0597 35.5845 69.0597ZM44.6945 69.0597C44.3735 69.0597 44.1001 68.9723 43.8742 68.7976C43.6484 68.6214 43.4758 68.3665 43.3565 68.0327C43.2371 67.6974 43.1775 67.2926 43.1775 66.8182C43.1775 66.3466 43.2371 65.9439 43.3565 65.6101C43.4772 65.2749 43.6505 65.0192 43.8763 64.843C44.1036 64.6655 44.3763 64.5767 44.6945 64.5767C45.0127 64.5767 45.2847 64.6655 45.5106 64.843C45.7379 65.0192 45.9111 65.2749 46.0305 65.6101C46.1512 65.9439 46.2116 66.3466 46.2116 66.8182C46.2116 67.2926 46.1519 67.6974 46.0326 68.0327C45.9133 68.3665 45.7407 68.6214 45.5148 68.7976C45.289 68.9723 45.0156 69.0597 44.6945 69.0597ZM44.6945 68.5909C45.0127 68.5909 45.2599 68.4375 45.436 68.1307C45.6121 67.8239 45.7002 67.3864 45.7002 66.8182C45.7002 66.4403 45.6597 66.1186 45.5788 65.853C45.4992 65.5874 45.3842 65.3849 45.2336 65.2457C45.0844 65.1065 44.9048 65.0369 44.6945 65.0369C44.3792 65.0369 44.1327 65.1925 43.9552 65.5036C43.7776 65.8132 43.6888 66.2514 43.6888 66.8182C43.6888 67.196 43.7286 67.517 43.8082 67.7812C43.8877 68.0455 44.0021 68.2464 44.1512 68.3842C44.3018 68.522 44.4829 68.5909 44.6945 68.5909ZM53.9553 64.6364V69H53.4269V65.1903H53.4014L52.336 65.8977V65.3608L53.4269 64.6364H53.9553ZM61.9995 64.5767C62.1785 64.5781 62.3575 64.6122 62.5364 64.679C62.7154 64.7457 62.8788 64.8565 63.0265 65.0114C63.1742 65.1648 63.2928 65.3743 63.3823 65.6399C63.4718 65.9055 63.5165 66.2386 63.5165 66.6392C63.5165 67.027 63.4796 67.3714 63.4058 67.6726C63.3333 67.9723 63.2282 68.2251 63.0904 68.4311C62.954 68.6371 62.7879 68.7933 62.5918 68.8999C62.3972 69.0064 62.1771 69.0597 61.9313 69.0597C61.687 69.0597 61.469 69.0114 61.2772 68.9148C61.0869 68.8168 60.9306 68.6811 60.8085 68.5078C60.6877 68.3331 60.6103 68.1307 60.5762 67.9006H61.0961C61.143 68.1009 61.236 68.2663 61.3752 68.397C61.5158 68.5263 61.7012 68.5909 61.9313 68.5909C62.268 68.5909 62.5336 68.4439 62.7282 68.1499C62.9242 67.8558 63.0222 67.4403 63.0222 66.9034H62.9881C62.9086 67.0227 62.8141 67.1257 62.7048 67.2124C62.5954 67.299 62.4739 67.3658 62.3404 67.4126C62.2069 67.4595 62.0648 67.483 61.9143 67.483C61.6643 67.483 61.4349 67.4212 61.2261 67.2976C61.0187 67.1726 60.8525 67.0014 60.7275 66.7841C60.6039 66.5653 60.5421 66.3153 60.5421 66.0341C60.5421 65.767 60.6018 65.5227 60.7211 65.3011C60.8418 65.0781 61.0109 64.9006 61.2282 64.7685C61.4469 64.6364 61.704 64.5724 61.9995 64.5767ZM61.9995 65.0455C61.8205 65.0455 61.6593 65.0902 61.5158 65.1797C61.3738 65.2678 61.2609 65.3871 61.1771 65.5376C61.0947 65.6868 61.0535 65.8523 61.0535 66.0341C61.0535 66.2159 61.0933 66.3814 61.1728 66.5305C61.2538 66.6783 61.3638 66.7962 61.5031 66.8842C61.6437 66.9709 61.8035 67.0142 61.9825 67.0142C62.1174 67.0142 62.2431 66.9879 62.3596 66.9354C62.4761 66.8814 62.5776 66.8082 62.6643 66.7159C62.7523 66.6222 62.8212 66.5163 62.871 66.3984C62.9207 66.2791 62.9455 66.1548 62.9455 66.0256C62.9455 65.8551 62.9043 65.6953 62.8219 65.5462C62.741 65.397 62.6288 65.2763 62.4853 65.1839C62.3433 65.0916 62.1813 65.0455 61.9995 65.0455ZM71.2289 69.0597C70.9476 69.0597 70.6969 69.0114 70.4767 68.9148C70.258 68.8182 70.084 68.6839 69.9547 68.5121C69.8269 68.3388 69.7573 68.1378 69.7459 67.9091H70.2828C70.2942 68.0497 70.3425 68.1712 70.4277 68.2734C70.513 68.3743 70.6245 68.4524 70.7623 68.5078C70.9 68.5632 71.0527 68.5909 71.2203 68.5909C71.4078 68.5909 71.574 68.5582 71.7189 68.4929C71.8638 68.4276 71.9775 68.3366 72.0598 68.2202C72.1422 68.1037 72.1834 67.9688 72.1834 67.8153C72.1834 67.6548 72.1436 67.5135 72.0641 67.3913C71.9846 67.2678 71.8681 67.1712 71.7147 67.1016C71.5613 67.032 71.3738 66.9972 71.1522 66.9972H70.8027V66.5284H71.1522C71.3255 66.5284 71.4775 66.4972 71.6081 66.4347C71.7402 66.3722 71.8432 66.2841 71.9171 66.1705C71.9924 66.0568 72.03 65.9233 72.03 65.7699C72.03 65.6222 71.9973 65.4936 71.932 65.3842C71.8667 65.2749 71.7743 65.1896 71.655 65.1286C71.5371 65.0675 71.3979 65.0369 71.2374 65.0369C71.0868 65.0369 70.9448 65.0646 70.8113 65.12C70.6792 65.174 70.5712 65.2528 70.4874 65.3565C70.4036 65.4588 70.3581 65.5824 70.351 65.7273H69.8397C69.8482 65.4986 69.9171 65.2983 70.0463 65.1264C70.1756 64.9531 70.3446 64.8182 70.5534 64.7216C70.7637 64.625 70.9945 64.5767 71.2459 64.5767C71.5158 64.5767 71.7473 64.6314 71.9405 64.7408C72.1337 64.8487 72.2821 64.9915 72.3858 65.169C72.4895 65.3466 72.5414 65.5384 72.5414 65.7443C72.5414 65.9901 72.4767 66.1996 72.3475 66.3729C72.2196 66.5462 72.0456 66.6662 71.8255 66.733V66.767C72.101 66.8125 72.3162 66.9297 72.4711 67.1186C72.6259 67.3061 72.7033 67.5384 72.7033 67.8153C72.7033 68.0526 72.6387 68.2656 72.5094 68.4545C72.3816 68.642 72.2069 68.7898 71.9853 68.8977C71.7637 69.0057 71.5115 69.0597 71.2289 69.0597ZM80.3725 69.0597C80.0799 69.0597 79.8213 69.0078 79.5969 68.9041C79.3739 68.799 79.1999 68.6548 79.0749 68.4716C78.9499 68.2869 78.8881 68.0767 78.8895 67.8409C78.8881 67.6562 78.9243 67.4858 78.9982 67.3295C79.0721 67.1719 79.1729 67.0405 79.3007 66.9354C79.43 66.8288 79.5742 66.7614 79.7333 66.733V66.7074C79.5245 66.6534 79.3583 66.5362 79.2347 66.3558C79.1111 66.174 79.05 65.9673 79.0515 65.7358C79.05 65.5142 79.1061 65.3161 79.2198 65.1413C79.3334 64.9666 79.4897 64.8288 79.6885 64.728C79.8888 64.6271 80.1168 64.5767 80.3725 64.5767C80.6253 64.5767 80.8512 64.6271 81.05 64.728C81.2489 64.8288 81.4052 64.9666 81.5188 65.1413C81.6338 65.3161 81.6921 65.5142 81.6935 65.7358C81.6921 65.9673 81.6289 66.174 81.5039 66.3558C81.3803 66.5362 81.2162 66.6534 81.0117 66.7074V66.733C81.1694 66.7614 81.3114 66.8288 81.4378 66.9354C81.5642 67.0405 81.6651 67.1719 81.7404 67.3295C81.8157 67.4858 81.854 67.6562 81.8554 67.8409C81.854 68.0767 81.7901 68.2869 81.6637 68.4716C81.5387 68.6548 81.3647 68.799 81.1417 68.9041C80.9201 69.0078 80.6637 69.0597 80.3725 69.0597ZM80.3725 68.5909C80.5699 68.5909 80.7404 68.5589 80.8838 68.495C81.0273 68.4311 81.1381 68.3409 81.2162 68.2244C81.2944 68.108 81.3341 67.9716 81.3355 67.8153C81.3341 67.6506 81.2915 67.505 81.2077 67.3786C81.1239 67.2521 81.0096 67.1527 80.8647 67.0803C80.7212 67.0078 80.5571 66.9716 80.3725 66.9716C80.1864 66.9716 80.0202 67.0078 79.8739 67.0803C79.729 67.1527 79.6147 67.2521 79.5309 67.3786C79.4485 67.505 79.408 67.6506 79.4094 67.8153C79.408 67.9716 79.4456 68.108 79.5223 68.2244C79.6005 68.3409 79.712 68.4311 79.8569 68.495C80.0017 68.5589 80.1736 68.5909 80.3725 68.5909ZM80.3725 66.5199C80.5287 66.5199 80.6672 66.4886 80.788 66.4261C80.9101 66.3636 81.006 66.2763 81.0756 66.1641C81.1452 66.0518 81.1807 65.9205 81.1821 65.7699C81.1807 65.6222 81.1459 65.4936 81.0777 65.3842C81.0096 65.2734 80.9151 65.1882 80.7944 65.1286C80.6736 65.0675 80.533 65.0369 80.3725 65.0369C80.2091 65.0369 80.0664 65.0675 79.9442 65.1286C79.8221 65.1882 79.7276 65.2734 79.6608 65.3842C79.5941 65.4936 79.5614 65.6222 79.5628 65.7699C79.5614 65.9205 79.5948 66.0518 79.663 66.1641C79.7326 66.2763 79.8284 66.3636 79.9506 66.4261C80.0728 66.4886 80.2134 66.5199 80.3725 66.5199ZM87.9697 68.1051V67.6705L89.8874 64.6364H90.2027V65.3097H89.9896L88.5408 67.6023V67.6364H91.1232V68.1051H87.9697ZM90.0237 69V67.973V67.7706V64.6364H90.5266V69H90.0237ZM97.458 69L99.4097 65.1392V65.1051H97.1597V64.6364H99.9551V65.1307L98.012 69H97.458ZM107.454 69.0597C107.204 69.0597 106.979 69.0099 106.779 68.9105C106.579 68.8111 106.418 68.6747 106.297 68.5014C106.177 68.3281 106.111 68.1307 106.099 67.9091H106.611C106.631 68.1065 106.72 68.2699 106.879 68.3991C107.04 68.527 107.231 68.5909 107.454 68.5909C107.633 68.5909 107.792 68.549 107.932 68.4652C108.072 68.3814 108.182 68.2663 108.262 68.12C108.343 67.9723 108.383 67.8054 108.383 67.6193C108.383 67.429 108.341 67.2592 108.258 67.1101C108.175 66.9595 108.062 66.8409 107.917 66.7543C107.772 66.6676 107.606 66.6236 107.42 66.6222C107.287 66.6207 107.15 66.6413 107.009 66.6839C106.868 66.7251 106.753 66.7784 106.662 66.8438L106.167 66.7841L106.432 64.6364H108.699V65.1051H106.875L106.721 66.392H106.747C106.837 66.321 106.949 66.2621 107.084 66.2152C107.219 66.1683 107.359 66.1449 107.506 66.1449C107.773 66.1449 108.011 66.2088 108.219 66.3366C108.43 66.4631 108.594 66.6364 108.714 66.8565C108.834 67.0767 108.895 67.3281 108.895 67.6108C108.895 67.8892 108.832 68.1378 108.707 68.3565C108.584 68.5739 108.413 68.7457 108.196 68.8722C107.979 68.9972 107.731 69.0597 107.454 69.0597ZM116.564 69.0597C116.243 69.0597 115.97 68.9723 115.744 68.7976C115.518 68.6214 115.346 68.3665 115.226 68.0327C115.107 67.6974 115.047 67.2926 115.047 66.8182C115.047 66.3466 115.107 65.9439 115.226 65.6101C115.347 65.2749 115.52 65.0192 115.746 64.843C115.974 64.6655 116.246 64.5767 116.564 64.5767C116.883 64.5767 117.155 64.6655 117.381 64.843C117.608 65.0192 117.781 65.2749 117.9 65.6101C118.021 65.9439 118.081 66.3466 118.081 66.8182C118.081 67.2926 118.022 67.6974 117.903 68.0327C117.783 68.3665 117.611 68.6214 117.385 68.7976C117.159 68.9723 116.885 69.0597 116.564 69.0597ZM116.564 68.5909C116.883 68.5909 117.13 68.4375 117.306 68.1307C117.482 67.8239 117.57 67.3864 117.57 66.8182C117.57 66.4403 117.53 66.1186 117.449 65.853C117.369 65.5874 117.254 65.3849 117.104 65.2457C116.954 65.1065 116.775 65.0369 116.564 65.0369C116.249 65.0369 116.003 65.1925 115.825 65.5036C115.648 65.8132 115.559 66.2514 115.559 66.8182C115.559 67.196 115.599 67.517 115.678 67.7812C115.758 68.0455 115.872 68.2464 116.021 68.3842C116.172 68.522 116.353 68.5909 116.564 68.5909ZM26.8494 81.0597C26.5568 81.0597 26.2983 81.0078 26.0739 80.9041C25.8509 80.799 25.6768 80.6548 25.5518 80.4716C25.4268 80.2869 25.3651 80.0767 25.3665 79.8409C25.3651 79.6562 25.4013 79.4858 25.4751 79.3295C25.549 79.1719 25.6499 79.0405 25.7777 78.9354C25.907 78.8288 26.0511 78.7614 26.2102 78.733V78.7074C26.0014 78.6534 25.8352 78.5362 25.7116 78.3558C25.5881 78.174 25.527 77.9673 25.5284 77.7358C25.527 77.5142 25.5831 77.3161 25.6967 77.1413C25.8104 76.9666 25.9666 76.8288 26.1655 76.728C26.3658 76.6271 26.5938 76.5767 26.8494 76.5767C27.1023 76.5767 27.3281 76.6271 27.527 76.728C27.7259 76.8288 27.8821 76.9666 27.9957 77.1413C28.1108 77.3161 28.169 77.5142 28.1705 77.7358C28.169 77.9673 28.1058 78.174 27.9808 78.3558C27.8572 78.5362 27.6932 78.6534 27.4886 78.7074V78.733C27.6463 78.7614 27.7884 78.8288 27.9148 78.9354C28.0412 79.0405 28.142 79.1719 28.2173 79.3295C28.2926 79.4858 28.331 79.6562 28.3324 79.8409C28.331 80.0767 28.267 80.2869 28.1406 80.4716C28.0156 80.6548 27.8416 80.799 27.6186 80.9041C27.397 81.0078 27.1406 81.0597 26.8494 81.0597ZM26.8494 80.5909C27.0469 80.5909 27.2173 80.5589 27.3608 80.495C27.5043 80.4311 27.6151 80.3409 27.6932 80.2244C27.7713 80.108 27.8111 79.9716 27.8125 79.8153C27.8111 79.6506 27.7685 79.505 27.6847 79.3786C27.6009 79.2521 27.4865 79.1527 27.3416 79.0803C27.1982 79.0078 27.0341 78.9716 26.8494 78.9716C26.6634 78.9716 26.4972 79.0078 26.3509 79.0803C26.206 79.1527 26.0916 79.2521 26.0078 79.3786C25.9254 79.505 25.8849 79.6506 25.8864 79.8153C25.8849 79.9716 25.9226 80.108 25.9993 80.2244C26.0774 80.3409 26.1889 80.4311 26.3338 80.495C26.4787 80.5589 26.6506 80.5909 26.8494 80.5909ZM26.8494 78.5199C27.0057 78.5199 27.1442 78.4886 27.2649 78.4261C27.3871 78.3636 27.483 78.2763 27.5526 78.1641C27.6222 78.0518 27.6577 77.9205 27.6591 77.7699C27.6577 77.6222 27.6229 77.4936 27.5547 77.3842C27.4865 77.2734 27.392 77.1882 27.2713 77.1286C27.1506 77.0675 27.0099 77.0369 26.8494 77.0369C26.6861 77.0369 26.5433 77.0675 26.4212 77.1286C26.299 77.1882 26.2045 77.2734 26.1378 77.3842C26.071 77.4936 26.0384 77.6222 26.0398 77.7699C26.0384 77.9205 26.0717 78.0518 26.1399 78.1641C26.2095 78.2763 26.3054 78.3636 26.4276 78.4261C26.5497 78.4886 26.6903 78.5199 26.8494 78.5199ZM35.9382 76.5767C36.1172 76.5781 36.2961 76.6122 36.4751 76.679C36.6541 76.7457 36.8174 76.8565 36.9652 77.0114C37.1129 77.1648 37.2315 77.3743 37.321 77.6399C37.4105 77.9055 37.4552 78.2386 37.4552 78.6392C37.4552 79.027 37.4183 79.3714 37.3444 79.6726C37.272 79.9723 37.1669 80.2251 37.0291 80.4311C36.8927 80.6371 36.7265 80.7933 36.5305 80.8999C36.3359 81.0064 36.1157 81.0597 35.87 81.0597C35.6257 81.0597 35.4076 81.0114 35.2159 80.9148C35.0255 80.8168 34.8693 80.6811 34.7471 80.5078C34.6264 80.3331 34.549 80.1307 34.5149 79.9006H35.0348C35.0816 80.1009 35.1747 80.2663 35.3139 80.397C35.4545 80.5263 35.6399 80.5909 35.87 80.5909C36.2066 80.5909 36.4723 80.4439 36.6669 80.1499C36.8629 79.8558 36.9609 79.4403 36.9609 78.9034H36.9268C36.8473 79.0227 36.7528 79.1257 36.6434 79.2124C36.5341 79.299 36.4126 79.3658 36.2791 79.4126C36.1456 79.4595 36.0035 79.483 35.8529 79.483C35.6029 79.483 35.3735 79.4212 35.1647 79.2976C34.9574 79.1726 34.7912 79.0014 34.6662 78.7841C34.5426 78.5653 34.4808 78.3153 34.4808 78.0341C34.4808 77.767 34.5404 77.5227 34.6598 77.3011C34.7805 77.0781 34.9495 76.9006 35.1669 76.7685C35.3856 76.6364 35.6427 76.5724 35.9382 76.5767ZM35.9382 77.0455C35.7592 77.0455 35.598 77.0902 35.4545 77.1797C35.3125 77.2678 35.1995 77.3871 35.1157 77.5376C35.0333 77.6868 34.9922 77.8523 34.9922 78.0341C34.9922 78.2159 35.0319 78.3814 35.1115 78.5305C35.1924 78.6783 35.3025 78.7962 35.4417 78.8842C35.5824 78.9709 35.7422 79.0142 35.9211 79.0142C36.0561 79.0142 36.1818 78.9879 36.2983 78.9354C36.4147 78.8814 36.5163 78.8082 36.6029 78.7159C36.691 78.6222 36.7599 78.5163 36.8096 78.3984C36.8593 78.2791 36.8842 78.1548 36.8842 78.0256C36.8842 77.8551 36.843 77.6953 36.7606 77.5462C36.6797 77.397 36.5674 77.2763 36.424 77.1839C36.2819 77.0916 36.12 77.0455 35.9382 77.0455ZM45.1675 81.0597C44.8863 81.0597 44.6356 81.0114 44.4154 80.9148C44.1967 80.8182 44.0227 80.6839 43.8934 80.5121C43.7656 80.3388 43.696 80.1378 43.6846 79.9091H44.2215C44.2329 80.0497 44.2812 80.1712 44.3664 80.2734C44.4516 80.3743 44.5631 80.4524 44.7009 80.5078C44.8387 80.5632 44.9914 80.5909 45.159 80.5909C45.3465 80.5909 45.5127 80.5582 45.6576 80.4929C45.8025 80.4276 45.9161 80.3366 45.9985 80.2202C46.0809 80.1037 46.1221 79.9688 46.1221 79.8153C46.1221 79.6548 46.0823 79.5135 46.0028 79.3913C45.9232 79.2678 45.8067 79.1712 45.6533 79.1016C45.4999 79.032 45.3124 78.9972 45.0908 78.9972H44.7414V78.5284H45.0908C45.2641 78.5284 45.4161 78.4972 45.5468 78.4347C45.6789 78.3722 45.7819 78.2841 45.8558 78.1705C45.931 78.0568 45.9687 77.9233 45.9687 77.7699C45.9687 77.6222 45.936 77.4936 45.8707 77.3842C45.8053 77.2749 45.713 77.1896 45.5937 77.1286C45.4758 77.0675 45.3366 77.0369 45.1761 77.0369C45.0255 77.0369 44.8835 77.0646 44.7499 77.12C44.6178 77.174 44.5099 77.2528 44.4261 77.3565C44.3423 77.4588 44.2968 77.5824 44.2897 77.7273H43.7783C43.7869 77.4986 43.8558 77.2983 43.985 77.1264C44.1143 76.9531 44.2833 76.8182 44.4921 76.7216C44.7023 76.625 44.9332 76.5767 45.1846 76.5767C45.4545 76.5767 45.686 76.6314 45.8792 76.7408C46.0724 76.8487 46.2208 76.9915 46.3245 77.169C46.4282 77.3466 46.48 77.5384 46.48 77.7443C46.48 77.9901 46.4154 78.1996 46.2861 78.3729C46.1583 78.5462 45.9843 78.6662 45.7641 78.733V78.767C46.0397 78.8125 46.2549 78.9297 46.4097 79.1186C46.5646 79.3061 46.642 79.5384 46.642 79.8153C46.642 80.0526 46.5773 80.2656 46.4481 80.4545C46.3202 80.642 46.1455 80.7898 45.9239 80.8977C45.7023 81.0057 45.4502 81.0597 45.1675 81.0597ZM52.8112 80.1051V79.6705L54.7288 76.6364H55.0441V77.3097H54.831L53.3822 79.6023V79.6364H55.9646V80.1051H52.8112ZM54.8651 81V79.973V79.7706V76.6364H55.368V81H54.8651ZM62.2994 81L64.2511 77.1392V77.1051H62.0011V76.6364H64.7966V77.1307L62.8534 81H62.2994ZM72.5249 76.6364V81H71.9964V77.1903H71.9709L70.9055 77.8977V77.3608L71.9964 76.6364H72.5249ZM80.6031 81.0597C80.2821 81.0597 80.0087 80.9723 79.7828 80.7976C79.557 80.6214 79.3844 80.3665 79.2651 80.0327C79.1457 79.6974 79.0861 79.2926 79.0861 78.8182C79.0861 78.3466 79.1457 77.9439 79.2651 77.6101C79.3858 77.2749 79.5591 77.0192 79.7849 76.843C80.0122 76.6655 80.2849 76.5767 80.6031 76.5767C80.9213 76.5767 81.1933 76.6655 81.4192 76.843C81.6465 77.0192 81.8197 77.2749 81.9391 77.6101C82.0598 77.9439 82.1202 78.3466 82.1202 78.8182C82.1202 79.2926 82.0605 79.6974 81.9412 80.0327C81.8219 80.3665 81.6493 80.6214 81.4234 80.7976C81.1976 80.9723 80.9241 81.0597 80.6031 81.0597ZM80.6031 80.5909C80.9213 80.5909 81.1685 80.4375 81.3446 80.1307C81.5207 79.8239 81.6088 79.3864 81.6088 78.8182C81.6088 78.4403 81.5683 78.1186 81.4874 77.853C81.4078 77.5874 81.2928 77.3849 81.1422 77.2457C80.993 77.1065 80.8134 77.0369 80.6031 77.0369C80.2878 77.0369 80.0413 77.1925 79.8638 77.5036C79.6862 77.8132 79.5974 78.2514 79.5974 78.8182C79.5974 79.196 79.6372 79.517 79.7168 79.7812C79.7963 80.0455 79.9107 80.2464 80.0598 80.3842C80.2104 80.522 80.3915 80.5909 80.6031 80.5909ZM89.719 76.5767C89.898 76.5781 90.077 76.6122 90.256 76.679C90.4349 76.7457 90.5983 76.8565 90.746 77.0114C90.8937 77.1648 91.0124 77.3743 91.1018 77.6399C91.1913 77.9055 91.2361 78.2386 91.2361 78.6392C91.2361 79.027 91.1991 79.3714 91.1253 79.6726C91.0528 79.9723 90.9477 80.2251 90.8099 80.4311C90.6736 80.6371 90.5074 80.7933 90.3114 80.8999C90.1168 81.0064 89.8966 81.0597 89.6509 81.0597C89.4065 81.0597 89.1885 81.0114 88.9967 80.9148C88.8064 80.8168 88.6501 80.6811 88.528 80.5078C88.4072 80.3331 88.3298 80.1307 88.2957 79.9006H88.8156C88.8625 80.1009 88.9555 80.2663 89.0947 80.397C89.2354 80.5263 89.4207 80.5909 89.6509 80.5909C89.9875 80.5909 90.2531 80.4439 90.4477 80.1499C90.6437 79.8558 90.7418 79.4403 90.7418 78.9034H90.7077C90.6281 79.0227 90.5337 79.1257 90.4243 79.2124C90.3149 79.299 90.1935 79.3658 90.0599 79.4126C89.9264 79.4595 89.7844 79.483 89.6338 79.483C89.3838 79.483 89.1544 79.4212 88.9456 79.2976C88.7382 79.1726 88.572 79.0014 88.447 78.7841C88.3234 78.5653 88.2616 78.3153 88.2616 78.0341C88.2616 77.767 88.3213 77.5227 88.4406 77.3011C88.5614 77.0781 88.7304 76.9006 88.9477 76.7685C89.1665 76.6364 89.4236 76.5724 89.719 76.5767ZM89.719 77.0455C89.5401 77.0455 89.3788 77.0902 89.2354 77.1797C89.0933 77.2678 88.9804 77.3871 88.8966 77.5376C88.8142 77.6868 88.773 77.8523 88.773 78.0341C88.773 78.2159 88.8128 78.3814 88.8923 78.5305C88.9733 78.6783 89.0834 78.7962 89.2226 78.8842C89.3632 78.9709 89.523 79.0142 89.702 79.0142C89.8369 79.0142 89.9626 78.9879 90.0791 78.9354C90.1956 78.8814 90.2972 78.8082 90.3838 78.7159C90.4719 78.6222 90.5408 78.5163 90.5905 78.3984C90.6402 78.2791 90.6651 78.1548 90.6651 78.0256C90.6651 77.8551 90.6239 77.6953 90.5415 77.5462C90.4605 77.397 90.3483 77.2763 90.2048 77.1839C90.0628 77.0916 89.9009 77.0455 89.719 77.0455ZM98.8717 81.0597C98.5791 81.0597 98.3206 81.0078 98.0961 80.9041C97.8731 80.799 97.6991 80.6548 97.5741 80.4716C97.4491 80.2869 97.3873 80.0767 97.3887 79.8409C97.3873 79.6562 97.4235 79.4858 97.4974 79.3295C97.5713 79.1719 97.6721 79.0405 97.8 78.9354C97.9292 78.8288 98.0734 78.7614 98.2325 78.733V78.7074C98.0237 78.6534 97.8575 78.5362 97.7339 78.3558C97.6103 78.174 97.5493 77.9673 97.5507 77.7358C97.5493 77.5142 97.6054 77.3161 97.719 77.1413C97.8326 76.9666 97.9889 76.8288 98.1877 76.728C98.388 76.6271 98.616 76.5767 98.8717 76.5767C99.1245 76.5767 99.3504 76.6271 99.5493 76.728C99.7481 76.8288 99.9044 76.9666 100.018 77.1413C100.133 77.3161 100.191 77.5142 100.193 77.7358C100.191 77.9673 100.128 78.174 100.003 78.3558C99.8795 78.5362 99.7154 78.6534 99.5109 78.7074V78.733C99.6686 78.7614 99.8106 78.8288 99.937 78.9354C100.063 79.0405 100.164 79.1719 100.24 79.3295C100.315 79.4858 100.353 79.6562 100.355 79.8409C100.353 80.0767 100.289 80.2869 100.163 80.4716C100.038 80.6548 99.8639 80.799 99.6409 80.9041C99.4193 81.0078 99.1629 81.0597 98.8717 81.0597ZM98.8717 80.5909C99.0691 80.5909 99.2396 80.5589 99.3831 80.495C99.5265 80.4311 99.6373 80.3409 99.7154 80.2244C99.7936 80.108 99.8333 79.9716 99.8348 79.8153C99.8333 79.6506 99.7907 79.505 99.7069 79.3786C99.6231 79.2521 99.5088 79.1527 99.3639 79.0803C99.2204 79.0078 99.0564 78.9716 98.8717 78.9716C98.6856 78.9716 98.5194 79.0078 98.3731 79.0803C98.2282 79.1527 98.1139 79.2521 98.0301 79.3786C97.9477 79.505 97.9072 79.6506 97.9086 79.8153C97.9072 79.9716 97.9448 80.108 98.0216 80.2244C98.0997 80.3409 98.2112 80.4311 98.3561 80.495C98.501 80.5589 98.6728 80.5909 98.8717 80.5909ZM98.8717 78.5199C99.0279 78.5199 99.1664 78.4886 99.2872 78.4261C99.4093 78.3636 99.5052 78.2763 99.5748 78.1641C99.6444 78.0518 99.6799 77.9205 99.6814 77.7699C99.6799 77.6222 99.6451 77.4936 99.577 77.3842C99.5088 77.2734 99.4143 77.1882 99.2936 77.1286C99.1728 77.0675 99.0322 77.0369 98.8717 77.0369C98.7083 77.0369 98.5656 77.0675 98.4434 77.1286C98.3213 77.1882 98.2268 77.2734 98.16 77.3842C98.0933 77.4936 98.0606 77.6222 98.062 77.7699C98.0606 77.9205 98.094 78.0518 98.1622 78.1641C98.2318 78.2763 98.3277 78.3636 98.4498 78.4261C98.572 78.4886 98.7126 78.5199 98.8717 78.5199ZM108.046 81.0597C107.764 81.0597 107.514 81.0114 107.294 80.9148C107.075 80.8182 106.901 80.6839 106.772 80.5121C106.644 80.3388 106.574 80.1378 106.563 79.9091H107.1C107.111 80.0497 107.159 80.1712 107.245 80.2734C107.33 80.3743 107.441 80.4524 107.579 80.5078C107.717 80.5632 107.87 80.5909 108.037 80.5909C108.225 80.5909 108.391 80.5582 108.536 80.4929C108.681 80.4276 108.794 80.3366 108.877 80.2202C108.959 80.1037 109 79.9688 109 79.8153C109 79.6548 108.96 79.5135 108.881 79.3913C108.801 79.2678 108.685 79.1712 108.531 79.1016C108.378 79.032 108.191 78.9972 107.969 78.9972H107.62V78.5284H107.969C108.142 78.5284 108.294 78.4972 108.425 78.4347C108.557 78.3722 108.66 78.2841 108.734 78.1705C108.809 78.0568 108.847 77.9233 108.847 77.7699C108.847 77.6222 108.814 77.4936 108.749 77.3842C108.683 77.2749 108.591 77.1896 108.472 77.1286C108.354 77.0675 108.215 77.0369 108.054 77.0369C107.904 77.0369 107.762 77.0646 107.628 77.12C107.496 77.174 107.388 77.2528 107.304 77.3565C107.22 77.4588 107.175 77.5824 107.168 77.7273H106.656C106.665 77.4986 106.734 77.2983 106.863 77.1264C106.992 76.9531 107.161 76.8182 107.37 76.7216C107.58 76.625 107.811 76.5767 108.063 76.5767C108.333 76.5767 108.564 76.6314 108.757 76.7408C108.95 76.8487 109.099 76.9915 109.203 77.169C109.306 77.3466 109.358 77.5384 109.358 77.7443C109.358 77.9901 109.294 78.1996 109.164 78.3729C109.036 78.5462 108.862 78.6662 108.642 78.733V78.767C108.918 78.8125 109.133 78.9297 109.288 79.1186C109.443 79.3061 109.52 79.5384 109.52 79.8153C109.52 80.0526 109.455 80.2656 109.326 80.4545C109.198 80.642 109.024 80.7898 108.802 80.8977C108.58 81.0057 108.328 81.0597 108.046 81.0597ZM115.689 80.1051V79.6705L117.607 76.6364H117.922V77.3097H117.709L116.26 79.6023V79.6364H118.843V80.1051H115.689ZM117.743 81V79.973V79.7706V76.6364H118.246V81H117.743Z" fill="white"/>
</svg>
